<svg width="311" height="253" viewBox="0 0 311 253" fill="none" xmlns="http://www.w3.org/2000/svg">
<path fill-rule="evenodd" clip-rule="evenodd" d="M278.215 145.56C278.027 146.54 277.853 147.66 277.699 148.943C277.543 150.225 277.446 151.673 277.2 153.296C276.965 154.919 276.861 156.748 276.56 158.763C276.679 156.297 275.963 157.538 276.016 155.665C275.882 156.981 275.688 158.35 275.349 159.704C274.908 161.63 274.475 163.57 273.812 165.301C273.239 166.864 272.755 168.311 272.194 169.502C275.05 160.061 276.467 149.798 276.216 138.727C275.595 111.38 270.18 87.8943 260.043 68.5645C261.891 71.5609 263.625 74.6394 265.233 77.7983C266.64 77.8864 261.393 66.2994 265.332 72.5334C266.977 75.6667 266.337 75.6213 266.405 76.3741L268.622 81.1565C269.387 82.7458 269.972 84.4009 270.656 86.0261C270.24 87.2416 269.86 88.428 269.399 89.6204C270.836 98.1913 272.868 104.666 275.022 111.964C277.113 119.237 279.193 127.382 279.126 138.661C279.343 139.27 279.549 139.715 279.744 140.033C279.369 140.704 278.997 141.643 278.681 143.013C278.506 143.737 278.381 144.579 278.215 145.56ZM84.2562 241.649C81.2526 241.164 78.7009 240.711 77.1504 240.689C75.9826 240.156 75.3162 239.677 74.9762 239.321C74.7328 239.069 74.6627 238.875 74.702 238.72C77.9047 239.812 81.2338 240.812 84.6953 241.71C84.5518 241.69 84.3981 241.669 84.2562 241.649ZM85.9913 12.8392C80.142 15.0273 75.159 17.6704 70.9714 20.1698C57.1799 27.118 45.0244 36.2252 34.9636 46.8849C48.0409 31.7867 66.0636 19.6275 85.9913 12.8392ZM188.524 10.5528C189.682 10.9719 191.153 11.4201 192.631 12.0334C194.112 12.639 195.638 13.2797 196.969 13.8759C199.628 15.0803 201.44 16.2735 200.676 16.4344C201.351 16.8005 202.049 17.1589 202.738 17.5198C197.186 15.2702 191.33 13.3148 185.151 11.6802C185.594 11.0301 185.853 10.3501 188.524 10.5528ZM252.785 55.8476C253.993 57.4617 255.268 59.2118 256.254 61.3862C256.296 61.594 256.123 61.464 255.87 61.2245C254.056 58.3154 252.102 55.5311 250.045 52.8392C250.964 53.7793 251.901 54.7501 252.785 55.8476ZM281.689 146.569C281.544 144.718 281.252 142.624 281.053 140.109C281.369 139.552 281.647 138.589 281.892 137.409C282.536 134.257 283.013 129.613 283.499 127.34L282.957 129.609C282.634 128.212 282.221 127.195 281.899 125.81C281.586 124.422 281.364 122.67 281.268 119.784C281.128 113.969 282.618 122.784 282.777 118.736C282.711 117.577 282.649 116.479 282.589 115.437C282.498 114.394 282.371 113.408 282.256 112.468C282.012 110.589 281.784 108.898 281.479 107.351C280.791 104.264 280.181 101.71 279.335 99.2914C278.91 98.087 278.494 96.8997 278.066 95.6808C277.85 95.0743 277.632 94.4593 277.409 93.8298C277.164 93.2053 276.913 92.5672 276.654 91.9077C276.143 90.5879 275.618 89.1817 275.072 87.6334C274.481 86.0963 273.817 84.43 273.143 82.5576C272.739 80.8135 272.154 79.1652 271.613 77.5434C271.058 75.9267 270.522 74.3409 269.834 72.8439C269.181 71.3359 268.514 69.8664 267.839 68.4319C267.094 67.0257 266.333 65.6571 265.57 64.315C264.831 62.9601 263.992 61.6813 263.136 60.4307C262.277 59.1827 261.465 57.9262 260.553 56.7423C258.694 54.396 256.896 52.0634 254.83 49.9173C252.875 47.6898 250.687 45.6464 248.513 43.5327C247.422 42.4797 246.225 41.5063 245.074 40.4662C244.494 39.9521 243.91 39.4329 243.322 38.9103C242.708 38.4158 242.09 37.9172 241.465 37.4142C236.549 33.3195 231.048 29.277 224.662 25.0429C225.729 25.8632 226.805 26.6903 227.896 27.5277C228.938 28.4216 229.996 29.3266 231.07 30.247C231.604 30.7072 232.143 31.1699 232.688 31.6378C233.221 32.1177 233.735 32.6326 234.266 33.1339C235.321 34.1424 236.398 35.1697 237.499 36.2227C241.769 40.5705 246.166 45.5334 250.686 51.5698C249.305 50.0062 247.74 48.6042 246.253 47.1569C244.794 45.6831 243.147 44.3949 241.593 43.0409C241.607 43.0665 241.623 43.0888 241.639 43.1144C234.752 36.0798 226.835 29.9921 217.898 24.8752C218.323 25.0839 218.767 25.3029 219.182 25.5065C220.331 26.0565 221.453 26.5672 222.467 27.1428C224.507 28.2736 226.422 29.1812 227.851 30.1666C224.367 26.4996 217.75 21.5846 213.03 18.5206C211.883 17.6986 210.868 16.9732 210.054 16.3907C209.257 15.7868 208.697 15.271 208.465 14.8759C208.002 14.0872 208.84 13.7741 211.756 14.2249C210.124 13.4123 208.648 12.704 207.302 12.0805C205.956 11.4535 204.699 11.0249 203.562 10.5904C202.42 10.1713 201.376 9.81202 200.396 9.49553C199.414 9.18674 198.478 8.98059 197.583 8.76161C195.785 8.3536 194.124 7.97723 192.283 7.66673C190.437 7.37334 188.434 7.04658 185.994 6.57014C183.594 5.86531 180.216 5.04842 177.3 4.42485C174.38 3.81582 171.946 3.20508 171.454 2.57809C166.832 2.41813 164.726 2.36082 162.045 2.10079C159.361 1.85786 156.136 1.15132 149.235 0.0932168C146.846 -0.0667388 144.484 0.0205097 142.387 0.0538695C140.292 0.107758 138.465 0.197573 137.109 0.413983C134.414 0.792916 133.763 1.24456 136.986 1.63546C145.787 1.78772 154.533 2.3651 163.279 3.45998C169.323 5.44446 166.198 5.79516 162.086 5.9919C159.691 6.14501 156.964 6.2468 155.42 6.45466C150.02 5.92775 144.445 5.57704 138.683 5.41965C124.81 5.04158 111.553 6.56757 99.1377 9.69398C102.299 8.53665 105.508 7.48282 108.774 6.58553C102.698 7.58461 96.7124 9.09863 90.8282 10.9129C92.1583 9.59219 95.0517 7.86945 95.7813 6.76773C96.1452 6.22456 95.9666 5.85504 94.7647 5.8251C93.5627 5.79602 91.3236 6.06204 87.6562 7.08935C84.7918 8.24668 82.0693 9.67858 79.3356 10.9634C76.6702 12.4243 73.9793 13.7382 71.4284 15.307C66.2395 18.2554 61.342 21.5683 56.5213 24.977C46.9218 31.8842 37.8348 39.5253 28.6582 48.428C17.3766 61.2501 8.3828 76.7453 3.75262 93.9803C3.21016 96.1402 2.59679 98.2863 2.21065 100.493L1.5614 103.789C1.37944 104.895 1.2402 106.009 1.07959 107.121C0.72165 109.341 0.54994 111.588 0.374814 113.839C0.145013 116.1 0.162099 118.3 0.0561685 120.541C-0.167652 129.468 0.261195 138.523 1.63573 147.546C2.3089 141.379 3.20332 155.384 3.07518 144.075C3.52795 145.834 3.92946 147.482 4.31901 149.236C4.87941 153.854 5.66022 158.419 6.66741 162.908C5.30143 160.061 4.70087 159.457 4.5565 160.255C4.43348 161.09 4.68122 163.474 5.24419 166.159C5.51927 167.504 5.81314 168.936 6.09249 170.303C6.39234 171.667 6.71696 172.958 6.90832 174.06C7.2842 176.263 7.33033 177.664 6.35902 177.128C7.17058 179.169 7.82069 180.967 8.35461 182.593C8.9509 184.197 9.45663 185.619 9.85899 186.944C10.0555 187.609 10.2417 188.243 10.422 188.855C10.6133 189.463 10.797 190.049 10.9772 190.621C11.3215 191.773 11.6248 192.885 11.934 194.014C13.3641 198.409 14.7173 203.33 20.8663 211.169C23.0772 213.176 23.8922 213.418 23.7299 212.688C23.6556 212.316 23.3497 211.69 22.8816 210.887C22.4143 210.085 21.8727 209.036 21.2012 207.917C20.5571 206.778 19.7524 205.585 19.0553 204.274C18.3496 202.976 17.6244 201.641 16.9273 200.358C15.5758 197.777 14.5054 195.323 13.8271 193.828C14.8292 195.326 15.9244 197.613 17.1554 199.838C16.331 197.975 15.7202 196.051 15.1717 194.302C14.6241 192.551 14.3815 190.843 14.1842 189.443C13.9604 187.83 14.0031 186.542 14.2508 185.735C18.9391 196.007 25.2701 205.504 33.5472 213.81C33.1457 214.37 32.8313 214.951 32.9757 215.764C33.0543 216.206 33.2679 216.718 33.6737 217.329C34.0931 217.927 34.7449 218.583 35.6393 219.375C35.8521 219.887 36.3159 220.523 36.9695 221.254C37.2966 221.618 37.6683 222.011 38.0851 222.414C38.5217 222.793 38.9992 223.189 39.5092 223.599C40.5292 224.419 41.6791 225.293 42.8922 226.191C44.1283 227.055 45.484 227.863 46.809 228.711C47.4736 229.13 48.1391 229.548 48.7969 229.963C49.4752 230.341 50.1467 230.715 50.8036 231.081C52.1158 231.812 53.3596 232.523 54.4727 233.199C56.7383 234.468 58.516 235.52 59.1943 236.419C68.646 240.329 77.0786 243.604 84.5561 245.85C86.4295 246.374 88.2329 246.859 89.9653 247.283C91.7004 247.688 93.3842 247.913 94.9808 248.122C96.5817 248.31 98.1049 248.437 99.5529 248.414C101.008 248.348 102.383 248.178 103.675 247.879C108.419 249.603 113.273 250.921 118.18 252.316C121.174 252.655 123.934 252.862 126.519 252.974C129.102 253.056 131.505 252.927 133.799 252.815C136.092 252.693 138.273 252.524 140.413 252.229C142.552 251.948 144.648 251.729 146.764 251.378C148.65 250.658 146.32 250.355 144.802 249.946C144.04 249.722 143.48 249.482 143.736 249.183C143.993 248.89 145.068 248.533 147.56 247.978C151.215 247.521 157.392 246.64 160.98 246.83C161.496 247.125 160.592 247.541 159.422 247.926C158.254 248.306 156.815 248.592 156.293 248.754C165.913 247.482 174.086 246.756 181.824 246.012C189.551 245.265 196.843 244.472 204.319 242.609C213.864 239.012 225.074 233.941 234.591 227.857C244.09 221.757 251.665 214.564 254.95 209.368C254.234 210.075 253.533 210.798 252.804 211.488L250.557 213.491C249.805 214.153 249.068 214.831 248.304 215.478L245.96 217.348C246.789 216.634 247.505 215.997 248.123 215.429C248.735 214.852 249.216 214.303 249.636 213.842C250.469 212.907 250.979 212.223 251.282 211.703C251.887 210.664 251.662 210.284 251.506 209.878C251.345 209.467 251.247 209.026 252.04 207.858C252.436 207.273 253.055 206.508 254.002 205.469C254.967 204.448 256.108 203.015 257.737 201.258C259.003 199.981 259.906 198.832 260.741 197.977C261.547 197.1 262.224 196.467 262.713 195.968C263.694 194.971 264.207 194.714 264.495 194.82C265.074 195.029 264.743 196.711 265.571 196.69C266.725 194.962 268.084 192.959 269.227 190.661C269.816 189.524 270.453 188.376 271.022 187.179C271.561 185.968 272.105 184.747 272.642 183.538C273.208 182.345 273.67 181.122 274.118 179.936C274.587 178.757 275.042 177.614 275.473 176.529C276.247 174.329 276.977 172.377 277.703 170.877C276.358 175.419 277.27 173.804 278.362 171.536C279.385 169.254 280.403 166.27 279.867 168.462C281.137 164.735 281.592 161.731 281.984 159.226C282.269 156.704 282.242 154.637 282.215 152.661C282.128 150.682 281.858 148.778 281.689 146.569Z" fill="#FFDFD6"/>
<mask id="mask0" mask-type="alpha" maskUnits="userSpaceOnUse" x="0" y="0" width="284" height="253">
<path fill-rule="evenodd" clip-rule="evenodd" d="M278.215 145.56C278.027 146.54 277.853 147.66 277.699 148.943C277.543 150.225 277.446 151.673 277.2 153.296C276.965 154.919 276.861 156.748 276.56 158.763C276.679 156.297 275.963 157.538 276.016 155.665C275.882 156.981 275.688 158.35 275.349 159.704C274.908 161.63 274.475 163.57 273.812 165.301C273.239 166.864 272.755 168.311 272.194 169.502C275.05 160.061 276.467 149.798 276.216 138.727C275.595 111.38 270.18 87.8943 260.043 68.5645C261.891 71.5609 263.625 74.6394 265.233 77.7983C266.64 77.8864 261.393 66.2994 265.332 72.5334C266.977 75.6667 266.337 75.6213 266.405 76.3741L268.622 81.1565C269.387 82.7458 269.972 84.4009 270.656 86.0261C270.24 87.2416 269.86 88.428 269.399 89.6204C270.836 98.1913 272.868 104.666 275.022 111.964C277.113 119.237 279.193 127.382 279.126 138.661C279.343 139.27 279.549 139.715 279.744 140.033C279.369 140.704 278.997 141.643 278.681 143.013C278.506 143.737 278.381 144.579 278.215 145.56ZM84.2562 241.649C81.2526 241.164 78.7009 240.711 77.1504 240.689C75.9826 240.156 75.3162 239.677 74.9762 239.321C74.7328 239.069 74.6627 238.875 74.702 238.72C77.9047 239.812 81.2338 240.812 84.6953 241.71C84.5518 241.69 84.3981 241.669 84.2562 241.649ZM85.9913 12.8392C80.142 15.0273 75.159 17.6704 70.9714 20.1698C57.1799 27.118 45.0244 36.2252 34.9636 46.8849C48.0409 31.7867 66.0636 19.6275 85.9913 12.8392ZM188.524 10.5528C189.682 10.9719 191.153 11.4201 192.631 12.0334C194.112 12.639 195.638 13.2797 196.969 13.8759C199.628 15.0803 201.44 16.2735 200.676 16.4344C201.351 16.8005 202.049 17.1589 202.738 17.5198C197.186 15.2702 191.33 13.3148 185.151 11.6802C185.594 11.0301 185.853 10.3501 188.524 10.5528ZM252.785 55.8476C253.993 57.4617 255.268 59.2118 256.254 61.3862C256.296 61.594 256.123 61.464 255.87 61.2245C254.056 58.3154 252.102 55.5311 250.045 52.8392C250.964 53.7793 251.901 54.7501 252.785 55.8476ZM281.689 146.569C281.544 144.718 281.252 142.624 281.053 140.109C281.369 139.552 281.647 138.589 281.892 137.409C282.536 134.257 283.013 129.613 283.499 127.34L282.957 129.609C282.634 128.212 282.221 127.195 281.899 125.81C281.586 124.422 281.364 122.67 281.268 119.784C281.128 113.969 282.618 122.784 282.777 118.736C282.711 117.577 282.649 116.479 282.589 115.437C282.498 114.394 282.371 113.408 282.256 112.468C282.012 110.589 281.784 108.898 281.479 107.351C280.791 104.264 280.181 101.71 279.335 99.2914C278.91 98.087 278.494 96.8997 278.066 95.6808C277.85 95.0743 277.632 94.4593 277.409 93.8298C277.164 93.2053 276.913 92.5672 276.654 91.9077C276.143 90.5879 275.618 89.1817 275.072 87.6334C274.481 86.0963 273.817 84.43 273.143 82.5576C272.739 80.8135 272.154 79.1652 271.613 77.5434C271.058 75.9267 270.522 74.3409 269.834 72.8439C269.181 71.3359 268.514 69.8664 267.839 68.4319C267.094 67.0257 266.333 65.6571 265.57 64.315C264.831 62.9601 263.992 61.6813 263.136 60.4307C262.277 59.1827 261.465 57.9262 260.553 56.7423C258.694 54.396 256.896 52.0634 254.83 49.9173C252.875 47.6898 250.687 45.6464 248.513 43.5327C247.422 42.4797 246.225 41.5063 245.074 40.4662C244.494 39.9521 243.91 39.4329 243.322 38.9103C242.708 38.4158 242.09 37.9172 241.465 37.4142C236.549 33.3195 231.048 29.277 224.662 25.0429C225.729 25.8632 226.805 26.6903 227.896 27.5277C228.938 28.4216 229.996 29.3266 231.07 30.247C231.604 30.7072 232.143 31.1699 232.688 31.6378C233.221 32.1177 233.735 32.6326 234.266 33.1339C235.321 34.1424 236.398 35.1697 237.499 36.2227C241.769 40.5705 246.166 45.5334 250.686 51.5698C249.305 50.0062 247.74 48.6042 246.253 47.1569C244.794 45.6831 243.147 44.3949 241.593 43.0409C241.607 43.0665 241.623 43.0888 241.639 43.1144C234.752 36.0798 226.835 29.9921 217.898 24.8752C218.323 25.0839 218.767 25.3029 219.182 25.5065C220.331 26.0565 221.453 26.5672 222.467 27.1428C224.507 28.2736 226.422 29.1812 227.851 30.1666C224.367 26.4996 217.75 21.5846 213.03 18.5206C211.883 17.6986 210.868 16.9732 210.054 16.3907C209.257 15.7868 208.697 15.271 208.465 14.8759C208.002 14.0872 208.84 13.7741 211.756 14.2249C210.124 13.4123 208.648 12.704 207.302 12.0805C205.956 11.4535 204.699 11.0249 203.562 10.5904C202.42 10.1713 201.376 9.81202 200.396 9.49553C199.414 9.18674 198.478 8.98059 197.583 8.76161C195.785 8.3536 194.124 7.97723 192.283 7.66673C190.437 7.37334 188.434 7.04658 185.994 6.57014C183.594 5.86531 180.216 5.04842 177.3 4.42485C174.38 3.81582 171.946 3.20508 171.454 2.57809C166.832 2.41813 164.726 2.36082 162.045 2.10079C159.361 1.85786 156.136 1.15132 149.235 0.0932168C146.846 -0.0667388 144.484 0.0205097 142.387 0.0538695C140.292 0.107758 138.465 0.197573 137.109 0.413983C134.414 0.792916 133.763 1.24456 136.986 1.63546C145.787 1.78772 154.533 2.3651 163.279 3.45998C169.323 5.44446 166.198 5.79516 162.086 5.9919C159.691 6.14501 156.964 6.2468 155.42 6.45466C150.02 5.92775 144.445 5.57704 138.683 5.41965C124.81 5.04158 111.553 6.56757 99.1377 9.69398C102.299 8.53665 105.508 7.48282 108.774 6.58553C102.698 7.58461 96.7124 9.09863 90.8282 10.9129C92.1583 9.59219 95.0517 7.86945 95.7813 6.76773C96.1452 6.22456 95.9666 5.85504 94.7647 5.8251C93.5627 5.79602 91.3236 6.06204 87.6562 7.08935C84.7918 8.24668 82.0693 9.67858 79.3356 10.9634C76.6702 12.4243 73.9793 13.7382 71.4284 15.307C66.2395 18.2554 61.342 21.5683 56.5213 24.977C46.9218 31.8842 37.8348 39.5253 28.6582 48.428C17.3766 61.2501 8.3828 76.7453 3.75262 93.9803C3.21016 96.1402 2.59679 98.2863 2.21065 100.493L1.5614 103.789C1.37944 104.895 1.2402 106.009 1.07959 107.121C0.72165 109.341 0.54994 111.588 0.374814 113.839C0.145013 116.1 0.162099 118.3 0.0561685 120.541C-0.167652 129.468 0.261195 138.523 1.63573 147.546C2.3089 141.379 3.20332 155.384 3.07518 144.075C3.52795 145.834 3.92946 147.482 4.31901 149.236C4.87941 153.854 5.66022 158.419 6.66741 162.908C5.30143 160.061 4.70087 159.457 4.5565 160.255C4.43348 161.09 4.68122 163.474 5.24419 166.159C5.51927 167.504 5.81314 168.936 6.09249 170.303C6.39234 171.667 6.71696 172.958 6.90832 174.06C7.2842 176.263 7.33033 177.664 6.35902 177.128C7.17058 179.169 7.82069 180.967 8.35461 182.593C8.9509 184.197 9.45663 185.619 9.85899 186.944C10.0555 187.609 10.2417 188.243 10.422 188.855C10.6133 189.463 10.797 190.049 10.9772 190.621C11.3215 191.773 11.6248 192.885 11.934 194.014C13.3641 198.409 14.7173 203.33 20.8663 211.169C23.0772 213.176 23.8922 213.418 23.7299 212.688C23.6556 212.316 23.3497 211.69 22.8816 210.887C22.4143 210.085 21.8727 209.036 21.2012 207.917C20.5571 206.778 19.7524 205.585 19.0553 204.274C18.3496 202.976 17.6244 201.641 16.9273 200.358C15.5758 197.777 14.5054 195.323 13.8271 193.828C14.8292 195.326 15.9244 197.613 17.1554 199.838C16.331 197.975 15.7202 196.051 15.1717 194.302C14.6241 192.551 14.3815 190.843 14.1842 189.443C13.9604 187.83 14.0031 186.542 14.2508 185.735C18.9391 196.007 25.2701 205.504 33.5472 213.81C33.1457 214.37 32.8313 214.951 32.9757 215.764C33.0543 216.206 33.2679 216.718 33.6737 217.329C34.0931 217.927 34.7449 218.583 35.6393 219.375C35.8521 219.887 36.3159 220.523 36.9695 221.254C37.2966 221.618 37.6683 222.011 38.0851 222.414C38.5217 222.793 38.9992 223.189 39.5092 223.599C40.5292 224.419 41.6791 225.293 42.8922 226.191C44.1283 227.055 45.484 227.863 46.809 228.711C47.4736 229.13 48.1391 229.548 48.7969 229.963C49.4752 230.341 50.1467 230.715 50.8036 231.081C52.1158 231.812 53.3596 232.523 54.4727 233.199C56.7383 234.468 58.516 235.52 59.1943 236.419C68.646 240.329 77.0786 243.604 84.5561 245.85C86.4295 246.374 88.2329 246.859 89.9653 247.283C91.7004 247.688 93.3842 247.913 94.9808 248.122C96.5817 248.31 98.1049 248.437 99.5529 248.414C101.008 248.348 102.383 248.178 103.675 247.879C108.419 249.603 113.273 250.921 118.18 252.316C121.174 252.655 123.934 252.862 126.519 252.974C129.102 253.056 131.505 252.927 133.799 252.815C136.092 252.693 138.273 252.524 140.413 252.229C142.552 251.948 144.648 251.729 146.764 251.378C148.65 250.658 146.32 250.355 144.802 249.946C144.04 249.722 143.48 249.482 143.736 249.183C143.993 248.89 145.068 248.533 147.56 247.978C151.215 247.521 157.392 246.64 160.98 246.83C161.496 247.125 160.592 247.541 159.422 247.926C158.254 248.306 156.815 248.592 156.293 248.754C165.913 247.482 174.086 246.756 181.824 246.012C189.551 245.265 196.843 244.472 204.319 242.609C213.864 239.012 225.074 233.941 234.591 227.857C244.09 221.757 251.665 214.564 254.95 209.368C254.234 210.075 253.533 210.798 252.804 211.488L250.557 213.491C249.805 214.153 249.068 214.831 248.304 215.478L245.96 217.348C246.789 216.634 247.505 215.997 248.123 215.429C248.735 214.852 249.216 214.303 249.636 213.842C250.469 212.907 250.979 212.223 251.282 211.703C251.887 210.664 251.662 210.284 251.506 209.878C251.345 209.467 251.247 209.026 252.04 207.858C252.436 207.273 253.055 206.508 254.002 205.469C254.967 204.448 256.108 203.015 257.737 201.258C259.003 199.981 259.906 198.832 260.741 197.977C261.547 197.1 262.224 196.467 262.713 195.968C263.694 194.971 264.207 194.714 264.495 194.82C265.074 195.029 264.743 196.711 265.571 196.69C266.725 194.962 268.084 192.959 269.227 190.661C269.816 189.524 270.453 188.376 271.022 187.179C271.561 185.968 272.105 184.747 272.642 183.538C273.208 182.345 273.67 181.122 274.118 179.936C274.587 178.757 275.042 177.614 275.473 176.529C276.247 174.329 276.977 172.377 277.703 170.877C276.358 175.419 277.27 173.804 278.362 171.536C279.385 169.254 280.403 166.27 279.867 168.462C281.137 164.735 281.592 161.731 281.984 159.226C282.269 156.704 282.242 154.637 282.215 152.661C282.128 150.682 281.858 148.778 281.689 146.569Z" fill="white"/>
</mask>
<g mask="url(#mask0)">
<rect x="-36.5401" y="-60.9733" width="371.49" height="377.367" rx="34.8" fill="#FFDFD6"/>
</g>
<path fill-rule="evenodd" clip-rule="evenodd" d="M213.688 223.087H62.445C58.9292 223.087 56.0803 220.236 56.0803 216.718V70.3527H220.052V216.718C220.052 220.236 217.202 223.087 213.688 223.087Z" fill="white"/>
<path fill-rule="evenodd" clip-rule="evenodd" d="M211.231 36.3322H64.9002C60.0291 36.3322 56.0803 40.2851 56.0803 45.1602V70.3529H220.052V45.1602C220.052 40.2851 216.103 36.3322 211.231 36.3322Z" fill="white"/>
<path fill-rule="evenodd" clip-rule="evenodd" d="M148.242 53.3533C148.242 58.9609 143.701 63.5061 138.098 63.5061C132.495 63.5061 127.952 58.9609 127.952 53.3533C127.952 47.7457 132.495 43.2005 138.098 43.2005C143.701 43.2005 148.242 47.7457 148.242 53.3533Z" fill="#FFDFD6"/>
<path fill-rule="evenodd" clip-rule="evenodd" d="M198.439 53.3533C198.439 58.9609 193.898 63.5061 188.294 63.5061C182.692 63.5061 178.149 58.9609 178.149 53.3533C178.149 47.7457 182.692 43.2005 188.294 43.2005C193.898 43.2005 198.439 47.7457 198.439 53.3533Z" fill="#FFDFD6"/>
<path fill-rule="evenodd" clip-rule="evenodd" d="M98.5979 53.3533C98.5979 58.9609 94.0565 63.5061 88.4535 63.5061C82.8514 63.5061 78.3082 58.9609 78.3082 53.3533C78.3082 47.7457 82.8514 43.2005 88.4535 43.2005C94.0565 43.2005 98.5979 47.7457 98.5979 53.3533Z" fill="#FFDFD6"/>
<path fill-rule="evenodd" clip-rule="evenodd" d="M94.388 30.2859C94.388 27.0057 91.7313 24.3459 88.4537 24.3459C85.1753 24.3459 82.5186 27.0057 82.5186 30.2859V53.0992C82.5186 56.3795 85.1753 59.0393 88.4537 59.0393C91.7313 59.0393 94.388 56.3795 94.388 53.0992L94.3872 34.0055C94.3872 33.9961 94.388 30.2953 94.388 30.2859Z" fill="white"/>
<path fill-rule="evenodd" clip-rule="evenodd" d="M143.968 30.2859C143.968 27.0057 141.311 24.3459 138.033 24.3459C134.755 24.3459 132.099 27.0057 132.099 30.2859V53.0992C132.099 56.3795 134.755 59.0393 138.033 59.0393C141.311 59.0393 143.968 56.3795 143.968 53.0992L143.967 34.0055C143.967 33.9961 143.968 30.2953 143.968 30.2859Z" fill="white"/>
<path fill-rule="evenodd" clip-rule="evenodd" d="M194.108 30.2859C194.108 27.0057 191.451 24.3459 188.172 24.3459C184.895 24.3459 182.238 27.0057 182.238 30.2859V53.0992C182.238 56.3795 184.895 59.0393 188.172 59.0393C191.451 59.0393 194.108 56.3795 194.108 53.0992L194.106 34.0055C194.106 33.9961 194.108 30.2953 194.108 30.2859Z" fill="white"/>
<path fill-rule="evenodd" clip-rule="evenodd" d="M123.945 160.833H152.145V132.611H123.945V160.833Z" fill="white"/>
<path fill-rule="evenodd" clip-rule="evenodd" d="M163.351 160.833H191.551V132.611H163.351V160.833Z" fill="white"/>
<path fill-rule="evenodd" clip-rule="evenodd" d="M284.206 169.527L273.487 143.424L299.571 132.696L310.289 158.8L284.206 169.527Z" fill="white"/>
<path fill-rule="evenodd" clip-rule="evenodd" d="M84.3737 132.611H88.9937H112.573V160.833H99.2431" fill="white"/>
<path fill-rule="evenodd" clip-rule="evenodd" d="M163.351 121.559H191.551V93.3363H163.351V121.559Z" fill="white"/>
<path fill-rule="evenodd" clip-rule="evenodd" d="M227.909 100.468C227.909 100.468 224.181 103.678 222.707 104.98C221.234 106.281 218.296 105.653 216.292 104.719C211.264 102.377 205.022 99.5136 203.723 98.9067C200.525 97.4127 197.717 95.6145 197.717 95.6145C197.079 95.3025 196.408 94.9983 195.746 94.7419C193.107 93.7197 192.626 95.176 194.272 96.911C194.935 97.6085 197.42 99.6298 198.428 100.399L196.912 103.813C196.912 103.813 197.315 104.425 200.341 106.108C201.121 106.542 212.652 113.917 218.373 116.173C224.095 118.429 227.53 117.816 230.684 115.045C234.238 111.921 236.751 108.798 236.751 108.798L227.909 100.468Z" fill="white"/>
<path fill-rule="evenodd" clip-rule="evenodd" d="M141.77 172.162H152.144V200.384H123.945V172.162H129.982" fill="white"/>
<path fill-rule="evenodd" clip-rule="evenodd" d="M177.877 200.384H163.352V172.162H191.551V200.384H186.811" fill="white"/>
<path fill-rule="evenodd" clip-rule="evenodd" d="M102.271 172.162H112.573V200.384H97.2107" fill="white"/>
<path fill-rule="evenodd" clip-rule="evenodd" d="M48.6959 129.743L43.5567 130.081C41.7573 130.2 40.2022 128.836 40.0827 127.035L39.3551 115.982C39.2364 114.181 40.6002 112.624 42.3995 112.506L47.5388 112.166C49.3381 112.047 50.8932 113.412 51.0128 115.213L51.7395 126.266C51.8591 128.068 50.4953 129.624 48.6959 129.743Z" fill="white"/>
<path fill-rule="evenodd" clip-rule="evenodd" d="M25.2539 149.63C23.1019 151.501 21.0105 150.577 19.1429 148.425L12.0292 140.226C10.1607 138.073 9.12483 135.704 11.3759 133.634C13.3076 131.858 15.9319 132.951 17.7996 135.104L24.9132 143.304C26.7809 145.457 27.4051 147.76 25.2539 149.63Z" fill="white"/>
<path fill-rule="evenodd" clip-rule="evenodd" d="M88.3942 171.884C89.8349 193.755 73.2873 212.653 51.4348 214.095C29.5815 215.536 10.6992 198.975 9.25851 177.104C7.81785 155.234 24.3654 136.335 46.2179 134.893C68.0712 133.452 86.9536 150.013 88.3942 171.884Z" fill="white"/>
<path fill-rule="evenodd" clip-rule="evenodd" d="M56.0898 121.344L35.1255 122.727C33.3262 122.846 31.7694 121.482 31.6515 119.68L31.2817 114.065C31.163 112.263 32.526 110.706 34.3262 110.588L55.2897 109.204C57.0907 109.086 58.6458 110.449 58.7645 112.251L59.1343 117.867C59.253 119.669 57.8892 121.225 56.0898 121.344Z" fill="white"/>
<path fill-rule="evenodd" clip-rule="evenodd" d="M50.0677 171.27C48.3282 170.74 48.4486 169.235 48.9781 167.495L52.4273 156.142C52.9568 154.401 53.9388 153.161 55.4324 153.616C56.9884 154.089 57.184 155.688 56.6553 157.429L53.2053 168.781C52.6767 170.522 51.8073 171.8 50.0677 171.27Z" fill="white"/>
<path fill-rule="evenodd" clip-rule="evenodd" d="M228.235 65.2354C228.235 65.2354 226.352 69.602 227.019 72.2062C228.091 76.3924 226.471 78.6061 226.067 79.883C225.978 80.1616 226.18 80.4454 226.473 80.453L228.313 80.5035C228.313 80.5035 228.887 84.0333 230.114 85.2615C232.271 87.4187 237.504 83.9906 237.504 83.9906L237.879 91.6187C237.879 91.6187 238.849 94.5408 242.386 92.6588C245.924 90.7785 245.682 88.5811 245.682 88.5811L242.275 69.9934L228.235 65.2354Z" fill="white"/>
<path fill-rule="evenodd" clip-rule="evenodd" d="M247.99 205.235L249.331 215.86L254.472 217.537L256.93 216.531V202.774L247.99 205.235Z" fill="white"/>
<path fill-rule="evenodd" clip-rule="evenodd" d="M241.187 166.246C241.187 166.246 243.267 188.397 244.306 195.236C245.346 202.075 246.088 206.387 246.088 206.387C246.088 206.387 248.317 207.873 252.922 207.724C257.527 207.576 259.606 206.387 259.606 206.387L259.755 185.722L241.187 166.246Z" fill="white"/>
<path fill-rule="evenodd" clip-rule="evenodd" d="M232.568 221.34H259.612C261.064 221.34 260.952 216.978 260.17 214.965C259.388 212.952 258.383 211.722 257.6 211.834C256.818 211.946 257.6 214.182 253.242 214.629C248.884 215.077 249.107 211.834 248.661 211.163C248.213 210.492 245.532 210.268 243.855 212.057C242.179 213.847 236.591 216.084 234.468 217.09C232.345 218.097 232.568 221.34 232.568 221.34Z" fill="white"/>
<path fill-rule="evenodd" clip-rule="evenodd" d="M280.397 195.505L286.431 205.012L284.308 209.821L280.173 210.715L278.05 208.366L272.239 200.426L280.397 195.505Z" fill="white"/>
<path fill-rule="evenodd" clip-rule="evenodd" d="M238.216 129.08C238.216 129.08 236.731 145.731 236.136 154.948C235.542 164.165 236.582 166.395 244.009 175.166C251.436 183.938 270.301 205.197 270.301 205.197C270.301 205.197 273.866 203.71 277.729 200.142C281.59 196.574 282.333 193.452 282.333 193.452C282.333 193.452 271.788 178.586 266.736 171.301C261.686 164.017 259.755 161.935 259.755 161.935C259.755 161.935 262.132 149.744 263.617 141.716C265.102 133.689 265.102 129.675 265.102 129.675L238.216 129.08Z" fill="white"/>
<path fill-rule="evenodd" clip-rule="evenodd" d="M268.366 220.557H280.324C280.324 220.557 281.776 220.669 283.676 218.321C285.576 215.972 291.05 208.367 291.833 207.36C292.616 206.353 290.1 202.914 288.107 201.992C286.629 201.308 285.684 201.222 285.314 201.433C284.88 201.68 285.761 204.676 283.638 206.465C281.514 208.255 278.609 207.808 277.492 207.025C276.374 206.241 275.256 205.906 275.256 208.143C275.256 210.38 275.453 213.477 275.453 213.477C275.453 213.477 267.193 214.704 268.366 220.557Z" fill="white"/>
<path fill-rule="evenodd" clip-rule="evenodd" d="M270.851 104.429C270.851 104.429 276.513 110.379 280.618 116.187C284.723 121.996 288.545 129.929 290.385 134.037C292.225 138.145 293.074 141.829 291.659 143.671C290.243 145.512 289.536 144.804 288.121 142.112C286.704 139.42 285.571 138.145 285.571 138.145L282.317 139.703C282.317 139.703 282.741 135.454 282.033 134.178C281.326 132.903 277.504 127.379 272.125 121.571C266.746 115.763 260.093 108.538 260.093 108.538L270.851 104.429Z" fill="white"/>
<mask id="mask1" mask-type="alpha" maskUnits="userSpaceOnUse" x="83" y="75" width="122" height="47">
<path fill-rule="evenodd" clip-rule="evenodd" d="M123.546 121.855H151.768V93.5904H123.546V121.855Z" fill="#5AE2E2"/>
<path fill-rule="evenodd" clip-rule="evenodd" d="M195.406 94.9979C196.069 95.2546 196.741 95.5594 197.38 95.8718C197.38 95.8718 198.294 96.4547 199.653 97.2259L204.152 86.9168L178.292 75.5968L166.989 101.495L192.849 112.815L196.632 104.149C196.595 104.109 196.573 104.082 196.573 104.082L198.09 100.663C197.082 99.8931 194.595 97.8687 193.931 97.1703C192.283 95.4327 192.765 93.9741 195.406 94.9979Z" fill="#5AE2E2"/>
<path fill-rule="evenodd" clip-rule="evenodd" d="M83.9421 121.855H112.165V93.5904H83.9421V121.855Z" fill="#5AE2E2"/>
</mask>
<g mask="url(#mask1)">
<rect x="-35.235" y="-59.205" width="366.27" height="377.367" rx="34.8" fill="#5AE2E2"/>
</g>
<mask id="mask2" mask-type="alpha" maskUnits="userSpaceOnUse" x="0" y="126" width="97" height="97">
<path fill-rule="evenodd" clip-rule="evenodd" d="M51.2182 214.183C29.3455 215.627 10.4464 199.036 9.00446 177.125C7.56337 155.215 24.1256 136.282 45.9974 134.839C67.8693 133.394 86.7692 149.986 88.2103 171.896C89.6522 193.806 73.09 212.738 51.2182 214.183ZM96.7883 171.33C95.0412 144.77 72.1317 124.658 45.6187 126.409C19.1056 128.16 -0.971278 151.11 0.776657 177.668C2.52374 204.228 25.4341 224.339 51.9472 222.588C78.4594 220.838 98.5363 197.889 96.7883 171.33Z" fill="#5AE2E2"/>
<path fill-rule="evenodd" clip-rule="evenodd" d="M50.7557 168.001C47.1735 166.909 43.3853 168.934 42.2963 172.523C41.2057 176.112 43.2271 179.906 46.8102 180.998C50.3924 182.089 54.1806 180.064 55.2695 176.475C56.3593 172.887 54.3379 169.092 50.7557 168.001Z" fill="#5AE2E2"/>
</mask>
<g mask="url(#mask2)">
<rect x="-34.0219" y="-45.9466" width="366.27" height="362.551" rx="34.8" fill="#5AE2E2"/>
</g>
<path fill-rule="evenodd" clip-rule="evenodd" d="M272.63 102.421C269.201 99.5792 260.858 92.5382 256.475 89.7195C248.991 84.9078 241.294 86.9739 237.752 91.4334C237.699 91.4463 237.652 91.4454 237.597 91.4643C232.638 93.1206 225.765 99.1385 225.765 99.1385C225.765 99.1385 226.897 101.668 231.073 106.202C232.348 107.588 233.606 108.661 234.74 109.487C234.501 119.222 234.216 127.046 234.093 130.26C234.059 131.127 234.753 131.843 235.62 131.843H266.518C267.972 131.843 269.015 130.437 268.597 129.041L263.347 111.522L272.551 104.826C273.355 104.241 273.395 103.055 272.63 102.421Z" fill="#5AE2E2"/>
<mask id="mask3" mask-type="alpha" maskUnits="userSpaceOnUse" x="225" y="86" width="49" height="46">
<path fill-rule="evenodd" clip-rule="evenodd" d="M272.63 102.421C269.201 99.5792 260.858 92.5382 256.475 89.7195C248.991 84.9078 241.294 86.9739 237.752 91.4334C237.699 91.4463 237.652 91.4454 237.597 91.4643C232.638 93.1206 225.765 99.1385 225.765 99.1385C225.765 99.1385 226.897 101.668 231.073 106.202C232.348 107.588 233.606 108.661 234.74 109.487C234.501 119.222 234.216 127.046 234.093 130.26C234.059 131.127 234.753 131.843 235.62 131.843H266.518C267.972 131.843 269.015 130.437 268.597 129.041L263.347 111.522L272.551 104.826C273.355 104.241 273.395 103.055 272.63 102.421Z" fill="white"/>
</mask>
<g mask="url(#mask3)">
<rect x="-8" width="319" height="268" rx="80" fill="#5AE2E2"/>
<rect x="-35.235" y="-61.6339" width="377.145" height="384.339" rx="34.8" fill="#5AE2E2"/>
</g>
<mask id="mask4" mask-type="alpha" maskUnits="userSpaceOnUse" x="0" y="23" width="311" height="201">
<path fill-rule="evenodd" clip-rule="evenodd" d="M55.8583 157.366L52.5394 168.283C52.0309 167.979 51.496 167.715 50.9149 167.538C50.4364 167.393 49.9553 167.3 49.476 167.254L52.7684 156.426C53.0187 155.599 53.358 154.967 53.7476 154.6C54.0125 154.35 54.2902 154.228 54.603 154.228C54.7389 154.228 54.8816 154.25 55.0311 154.296C56.4325 154.723 56.1514 156.402 55.8583 157.366ZM54.685 176.396C54.2039 177.977 53.1366 179.275 51.6797 180.053C50.2219 180.831 48.5488 180.995 46.9714 180.514C43.7097 179.521 41.8631 176.06 42.8543 172.797C43.3354 171.216 44.4019 169.917 45.8588 169.139C46.7671 168.655 47.7601 168.409 48.7607 168.409C49.3657 168.409 49.9732 168.497 50.568 168.679C53.8296 169.672 55.6762 173.132 54.685 176.396ZM55.378 153.156C54.4706 152.879 53.6237 153.077 52.9299 153.733C52.3821 154.25 51.9438 155.04 51.6285 156.079L48.2327 167.246C45.282 167.465 42.6254 169.453 41.7136 172.45C40.531 176.341 42.7348 180.47 46.6245 181.654C47.3363 181.871 48.0566 181.974 48.765 181.974C51.9267 181.974 54.8585 179.921 55.8249 176.742C56.3983 174.857 56.2035 172.861 55.2746 171.123C54.8371 170.302 54.2501 169.595 53.5648 169.006L56.9982 157.713C57.7066 155.384 57.1007 153.681 55.378 153.156Z" fill="#393F49"/>
<path fill-rule="evenodd" clip-rule="evenodd" d="M219.331 69.8532H56.4493V48.7347C56.4493 42.2748 61.7028 37.0193 68.1612 37.0193H81.7111V44.9452C79.1596 46.9122 77.4992 49.9819 77.4992 53.4465C77.4992 59.3747 82.3204 64.1968 88.2464 64.1968C94.1715 64.1968 98.9926 59.3747 98.9926 53.4465C98.9926 49.981 97.3323 46.9114 94.7799 44.9444L94.7791 37.0193H131.322V44.9906C128.806 46.9601 127.173 50.0101 127.173 53.4465C127.173 59.3747 131.995 64.1968 137.921 64.1968C143.846 64.1968 148.667 59.3747 148.667 53.4465C148.667 49.9537 146.977 46.8635 144.39 44.8999V37.0193H181.492V45.0393C179.009 47.0097 177.402 50.0375 177.402 53.4465C177.402 59.3747 182.222 64.1968 188.149 64.1968C194.074 64.1968 198.896 59.3747 198.896 53.4465C198.896 49.928 197.181 46.8207 194.561 44.8589V37.0193H207.619C214.078 37.0193 219.331 42.2748 219.331 48.7347V69.8532ZM131.918 48.8911C132.247 48.8911 132.513 48.6244 132.513 48.2945V30.3756C132.513 27.4281 134.91 25.0303 137.856 25.0303C140.802 25.0303 143.199 27.4281 143.199 30.3756L143.198 32.2357L143.199 53.1926C143.199 56.1401 140.802 58.5379 137.856 58.5379C136.428 58.5379 135.087 57.9814 134.078 56.9718C133.845 56.7393 133.469 56.7393 133.236 56.9718C133.004 57.2043 133.004 57.5822 133.236 57.8147C134.469 59.0499 136.11 59.7295 137.856 59.7295C141.459 59.7295 144.391 56.7974 144.391 53.1926L144.39 46.4446C146.279 48.191 147.476 50.676 147.476 53.4465C147.476 58.7174 143.19 63.0052 137.921 63.0052C132.652 63.0052 128.365 58.7174 128.365 53.4465C128.365 50.7376 129.506 48.2987 131.322 46.5583V48.2945C131.322 48.6244 131.588 48.8911 131.918 48.8911ZM188.027 59.7295C191.63 59.7295 194.561 56.7974 194.561 53.1926V46.3942C196.483 48.1423 197.703 50.6487 197.703 53.4465C197.703 58.7174 193.418 63.0052 188.149 63.0052C182.88 63.0052 178.593 58.7174 178.593 53.4465C178.593 50.7658 179.709 48.3466 181.492 46.6096V53.1926C181.492 56.7974 184.423 59.7295 188.027 59.7295ZM220.523 48.7347C220.523 41.6174 214.733 35.8268 207.619 35.8268H194.561V30.3756C194.561 26.7716 191.63 23.8387 188.027 23.8387C185.852 23.8387 183.827 24.9166 182.609 26.7203C182.424 26.993 182.497 27.3631 182.768 27.5478C183.04 27.7307 183.412 27.6615 183.596 27.3871C184.594 25.9125 186.249 25.0303 188.027 25.0303C190.972 25.0303 193.369 27.4281 193.369 30.3756L193.368 34.0958L193.369 53.1926C193.369 56.1401 190.972 58.5379 188.027 58.5379C185.081 58.5379 182.683 56.1401 182.683 53.1926V34.2154C182.683 33.8855 182.417 33.6196 182.087 33.6196C181.758 33.6196 181.492 33.8855 181.492 34.2154V35.8268H144.39V34.0958L144.391 30.3756C144.391 26.7716 141.459 23.8387 137.856 23.8387C134.254 23.8387 131.322 26.7716 131.322 30.3756V35.8268H94.7791V34.0958L94.7799 30.3756C94.7799 29.3241 94.5236 28.2778 94.0399 27.3503C92.9086 25.1842 90.6877 23.8387 88.2464 23.8387C86.9706 23.8387 85.7324 24.2071 84.6703 24.9029C84.396 25.0833 84.3191 25.4526 84.4994 25.7279C84.6788 26.004 85.0497 26.0775 85.3248 25.9005C86.1913 25.3312 87.203 25.0303 88.2464 25.0303C90.2434 25.0303 92.0592 26.1313 92.9838 27.9017C93.3845 28.671 93.5888 29.5028 93.5888 30.3756L93.5879 32.2357L93.5888 53.1926C93.5888 53.7389 93.5076 54.2766 93.3452 54.7903C93.2478 55.104 93.4221 55.4391 93.7366 55.5366C93.7964 55.5554 93.8554 55.5648 93.9143 55.5648C94.1681 55.5648 94.4031 55.4015 94.4843 55.1468C94.68 54.5176 94.7799 53.8603 94.7799 53.1926V46.501C96.6325 48.244 97.8006 50.7068 97.8006 53.4465C97.8006 58.7174 93.5153 63.0052 88.2464 63.0052C82.9775 63.0052 78.6904 58.7174 78.6904 53.4465C78.6904 50.7076 79.8586 48.2457 81.7111 46.5019V53.1926C81.7111 56.7974 84.6429 59.7295 88.2464 59.7295C88.9445 59.7295 89.6315 59.6201 90.2861 59.4038C90.5997 59.3012 90.7697 58.9644 90.6655 58.6516C90.5621 58.3387 90.2254 58.1677 89.9144 58.2712C89.3786 58.4481 88.8181 58.5379 88.2464 58.5379C85.3001 58.5379 82.9032 56.1401 82.9032 53.1926V30.3756C82.9032 29.5224 83.098 28.7069 83.4825 27.9521C83.6321 27.6589 83.5158 27.2999 83.2236 27.1503C82.9314 27.0033 82.5699 27.1161 82.4212 27.411C81.9504 28.3351 81.7111 29.3327 81.7111 30.3756V35.8268H68.1612C61.0466 35.8268 55.2573 41.6174 55.2573 48.7347V71.0457H220.523V48.7347Z" fill="#393F49"/>
<path fill-rule="evenodd" clip-rule="evenodd" d="M219.927 213.73C219.597 213.73 219.331 213.997 219.331 214.326C219.331 218.895 215.614 222.613 211.045 222.613H64.7331C63.4138 222.613 62.1756 222.288 61.0682 221.734C64.1862 220.924 67.2163 219.809 70.1336 218.383C70.4293 218.239 70.5506 217.882 70.4062 217.586C70.2626 217.289 69.9072 217.168 69.6098 217.312C64.0658 220.021 58.1047 221.603 51.8933 222.012C25.7506 223.738 3.09419 203.867 1.37065 177.721C1.13908 174.204 1.29545 170.672 1.83208 167.226C1.8825 166.9 1.66033 166.595 1.33562 166.544C1.01432 166.494 0.705845 166.715 0.655429 167.041C0.103418 170.576 -0.0555202 174.195 0.182033 177.8C1.87652 203.516 23.3349 223.309 48.7368 223.309C49.8083 223.309 50.8884 223.274 51.9719 223.202C54.485 223.036 56.9546 222.676 59.3762 222.14C60.9007 223.189 62.7464 223.806 64.7331 223.806H211.045C216.272 223.806 220.522 219.553 220.522 214.326C220.522 213.997 220.256 213.73 219.927 213.73Z" fill="#393F49"/>
<path fill-rule="evenodd" clip-rule="evenodd" d="M12.225 139.943C10.0853 137.478 9.87001 135.7 11.5235 134.18C12.0516 133.694 12.6583 133.448 13.3282 133.448C13.3812 133.448 13.4333 133.45 13.4871 133.453C14.6535 133.519 15.9712 134.302 17.0983 135.602L18.1177 136.777C16.4301 138.144 14.8244 139.62 13.3248 141.21L12.225 139.943ZM50.6513 122.39L50.8846 125.936C49.1303 125.86 47.3572 125.872 45.567 125.99C43.8255 126.105 42.1079 126.329 40.4083 126.626L40.175 123.081L50.6513 122.39ZM54.6145 122.128C54.8342 122.114 55.0444 122.063 55.2571 122.022V126.318C54.2095 126.177 53.1499 126.081 52.0844 126.009L51.84 122.311L54.6145 122.128ZM7.20311 150.37C7.48595 150.54 7.85083 150.45 8.02087 150.166C16.0464 136.797 30.1124 128.204 45.6456 127.179C71.7978 125.46 94.4456 145.327 96.1683 171.471C96.8887 182.394 93.7885 193.305 87.4395 202.194C85.8527 204.417 84.0625 206.518 82.1202 208.435C81.8852 208.666 81.8844 209.044 82.1151 209.278C82.2322 209.396 82.3851 209.455 82.5389 209.455C82.6902 209.455 82.8414 209.398 82.9576 209.284C84.9469 207.319 86.7824 205.166 88.4103 202.887C94.9173 193.774 98.0952 182.589 97.3578 171.393C95.8351 148.306 78.3818 130.008 56.4492 126.504V121.65C57.09 121.352 57.672 120.93 58.1513 120.382C59.0597 119.346 59.5091 118.019 59.4186 116.645L59.2186 113.602C59.0956 111.746 57.9856 110.192 56.4492 109.385V87.7369C56.4492 87.4069 56.1826 87.1402 55.8536 87.1402C55.5237 87.1402 55.2571 87.4069 55.2571 87.7369V108.947C54.7683 108.831 54.2625 108.76 53.7361 108.797L40.9869 109.638C40.6579 109.66 40.4101 109.944 40.4314 110.272C40.4537 110.602 40.7468 110.84 41.0655 110.827L53.8156 109.987C56.0014 109.846 57.8856 111.5 58.03 113.681L58.2291 116.723C58.2992 117.78 57.9539 118.8 57.255 119.596C56.5585 120.393 55.5929 120.87 54.5359 120.939L36.1324 122.152C33.9466 122.299 32.0633 120.638 31.9188 118.459L31.718 115.416C31.648 114.36 31.994 113.339 32.6922 112.543C32.9084 112.295 32.8844 111.919 32.6375 111.702C32.3888 111.485 32.0128 111.509 31.7958 111.757C30.8892 112.793 30.438 114.119 30.5294 115.494L30.7294 118.537C30.9097 121.259 33.181 123.353 35.8675 123.353C35.982 123.353 36.0965 123.349 36.211 123.342L38.9856 123.159L39.2291 126.841C31.8411 128.32 24.9461 131.491 19.05 136.032L17.9989 134.821C16.6608 133.28 15.0415 132.347 13.5529 132.263C12.4917 132.202 11.5209 132.564 10.7177 133.302C8.56434 135.282 8.76942 137.778 11.3244 140.724L12.5198 142.101C10.469 144.386 8.61048 146.87 6.99974 149.553C6.82969 149.835 6.92113 150.201 7.20311 150.37Z" fill="#393F49"/>
<path fill-rule="evenodd" clip-rule="evenodd" d="M77.9878 200.376C71.1073 208.23 61.5822 212.933 51.1649 213.62C29.6689 215.05 11.0133 198.691 9.59658 177.18C8.17981 155.667 24.5214 137.013 46.025 135.596C46.8966 135.538 47.7605 135.51 48.621 135.51C69.0078 135.51 86.2321 151.397 87.5925 172.036C88.2786 182.457 84.8683 192.521 77.9878 200.376ZM88.782 171.958C87.3199 149.79 68.1098 132.947 45.9464 134.406C23.7865 135.867 6.94762 155.09 8.40712 177.258C9.80936 198.528 27.5566 214.898 48.5672 214.898C49.4542 214.898 50.3463 214.869 51.2444 214.81C61.9778 214.103 71.7935 209.255 78.8842 201.161C85.9741 193.068 89.4895 182.696 88.782 171.958Z" fill="#393F49"/>
<path fill-rule="evenodd" clip-rule="evenodd" d="M46.82 145.111C46.8328 145.111 46.8457 145.111 46.8593 145.11C47.1883 145.089 47.4361 144.804 47.4139 144.476L47.0883 139.521C47.0678 139.193 46.8115 138.947 46.4543 138.967C46.1262 138.987 45.8784 139.272 45.8997 139.6L46.2253 144.555C46.2458 144.87 46.5081 145.111 46.82 145.111Z" fill="#393F49"/>
<path fill-rule="evenodd" clip-rule="evenodd" d="M50.7262 203.809C50.3981 203.83 50.1486 204.115 50.1716 204.443L50.4981 209.397C50.5194 209.712 50.7809 209.953 51.0928 209.953C51.1056 209.953 51.1184 209.952 51.133 209.952C51.4602 209.931 51.7089 209.647 51.6875 209.318L51.3603 204.364C51.3398 204.035 51.0544 203.793 50.7262 203.809Z" fill="#393F49"/>
<path fill-rule="evenodd" clip-rule="evenodd" d="M18.8208 175.838L13.8681 176.165C13.54 176.186 13.2922 176.47 13.3135 176.799C13.334 177.114 13.5964 177.355 13.9066 177.355C13.9211 177.355 13.9331 177.355 13.9476 177.354L18.9003 177.028C19.2284 177.006 19.4762 176.722 19.4549 176.394C19.4327 176.065 19.1575 175.822 18.8208 175.838Z" fill="#393F49"/>
<path fill-rule="evenodd" clip-rule="evenodd" d="M83.6381 171.564L78.6862 171.891C78.3572 171.912 78.1094 172.197 78.1316 172.525C78.1521 172.84 78.4136 173.081 78.7247 173.081C78.7383 173.081 78.7512 173.081 78.7657 173.081L83.7175 172.754C84.0457 172.733 84.2943 172.448 84.2721 172.12C84.2508 171.791 83.979 171.561 83.6381 171.564Z" fill="#393F49"/>
<path fill-rule="evenodd" clip-rule="evenodd" d="M26.2318 155.277C26.3967 155.277 26.5625 155.208 26.6796 155.074C26.8957 154.827 26.8718 154.45 26.624 154.233L22.8924 150.96C22.6454 150.745 22.2694 150.767 22.0515 151.016C21.8354 151.264 21.8601 151.64 22.1079 151.857L25.8396 155.129C25.9524 155.228 26.0925 155.277 26.2318 155.277Z" fill="#393F49"/>
<path fill-rule="evenodd" clip-rule="evenodd" d="M71.7459 193.789C71.5007 193.574 71.123 193.597 70.9059 193.845C70.6897 194.092 70.7137 194.468 70.9615 194.686L74.6931 197.957C74.8067 198.056 74.946 198.105 75.0853 198.105C75.2511 198.105 75.416 198.037 75.5339 197.903C75.751 197.655 75.7253 197.279 75.4775 197.061L71.7459 193.789Z" fill="#393F49"/>
<path fill-rule="evenodd" clip-rule="evenodd" d="M28.5742 196.636L25.3031 200.37C25.087 200.617 25.1109 200.994 25.3587 201.211C25.4715 201.31 25.6116 201.359 25.7509 201.359C25.9167 201.359 26.0816 201.29 26.1995 201.155L29.4706 197.421C29.6868 197.174 29.662 196.797 29.4142 196.581C29.1672 196.364 28.7904 196.387 28.5742 196.636Z" fill="#393F49"/>
<path fill-rule="evenodd" clip-rule="evenodd" d="M72.2265 147.708C71.9805 147.491 71.6036 147.515 71.3866 147.762L68.1155 151.497C67.8993 151.745 67.9233 152.121 68.1711 152.338C68.2847 152.438 68.424 152.486 68.5633 152.486C68.7282 152.486 68.894 152.418 69.011 152.284L72.2821 148.549C72.4983 148.301 72.4744 147.925 72.2265 147.708Z" fill="#393F49"/>
<path fill-rule="evenodd" clip-rule="evenodd" d="M291.281 207.113C291.018 207.452 290.227 208.533 289.219 209.909C287.293 212.54 284.383 216.515 283.126 218.066C281.492 220.085 280.279 220.083 280.234 220.083H268.78C268.663 219.037 268.89 218.123 269.468 217.301C271.185 214.852 275.406 214.194 275.45 214.187L275.99 214.106L275.955 213.56C275.953 213.529 275.76 210.455 275.76 208.262C275.76 207.3 275.982 207.157 275.985 207.156C275.987 207.153 276.229 207.051 277.058 207.632C278.474 208.621 281.649 208.967 283.934 207.041C285.602 205.635 285.646 203.581 285.67 202.478C285.673 202.334 285.676 202.17 285.684 202.044C285.996 202.032 286.655 202.133 287.774 202.651C289.219 203.32 290.963 205.496 291.261 206.694C291.331 206.973 291.295 207.096 291.281 207.113ZM274.877 203.267C275.858 202.568 276.935 201.72 278.042 200.698C279.244 199.588 280.151 198.521 280.837 197.567L284.444 203.249C284.374 204.197 284.133 205.315 283.167 206.129C281.3 207.701 278.682 207.314 277.743 206.656C277.539 206.513 277.303 206.363 277.05 206.235L274.877 203.267ZM248.201 212.082C248.522 213.274 249.201 215.751 253.198 215.343C256.617 214.992 257.248 213.53 257.587 212.746C257.614 212.685 257.646 212.611 257.674 212.553C258.021 212.653 258.796 213.455 259.513 215.302C260.154 216.95 260.23 219.9 259.654 220.744C259.599 220.825 259.549 220.866 259.51 220.866H233.048C233.092 219.996 233.345 218.347 234.606 217.75C235.016 217.556 235.553 217.317 236.167 217.043C238.786 215.877 242.744 214.115 244.179 212.585C244.883 211.833 245.936 211.386 246.998 211.386H247.017C247.64 211.388 247.996 211.549 248.054 211.61C248.092 211.674 248.155 211.91 248.201 212.082ZM252.171 208.45C252.386 208.45 252.608 208.447 252.835 208.439C254.176 208.396 255.291 208.262 256.23 208.098V212.788C255.872 213.346 255.13 213.947 253.076 214.157C250.058 214.467 249.658 212.908 249.353 211.772C249.317 211.635 249.282 211.516 249.245 211.402L248.831 208.127C249.749 208.312 250.845 208.45 252.171 208.45ZM288.274 201.57C287.392 201.161 285.78 200.551 284.932 201.033C284.797 201.11 284.713 201.22 284.648 201.345L281.558 196.48C282.533 194.876 282.807 193.785 282.825 193.707L282.888 193.445L282.731 193.224C282.627 193.076 272.122 178.274 267.128 171.074C262.954 165.057 260.911 162.584 260.294 161.871C260.663 159.975 262.76 149.19 264.102 141.933C264.528 139.638 264.874 137.444 265.129 135.413C265.169 135.086 264.939 134.788 264.612 134.747C264.291 134.705 263.989 134.935 263.947 135.264C263.694 137.273 263.352 139.443 262.932 141.716C261.463 149.651 259.092 161.81 259.068 161.932L259.01 162.231L259.217 162.452C259.235 162.472 261.197 164.614 266.149 171.754C270.797 178.456 280.213 191.733 281.591 193.675C281.327 194.459 280.289 197.002 277.235 199.822C274.221 202.605 271.366 204.107 270.359 204.59C267.937 201.859 251.19 182.966 244.353 174.896C236.837 166.023 236.041 163.988 236.613 155.096C236.954 149.824 237.587 142.112 238.058 136.572C238.086 136.244 237.843 135.955 237.515 135.927C237.221 135.894 236.899 136.142 236.872 136.47C236.4 142.016 235.766 149.736 235.425 155.02C234.877 163.514 235.804 166.322 241.101 172.852C241.348 175.37 241.65 178.376 241.967 181.415C242.675 188.234 243.227 192.953 243.607 195.443C244.635 202.21 245.383 206.564 245.39 206.607L245.435 206.859L245.648 207.001C245.697 207.035 246.352 207.446 247.591 207.823L247.903 210.295C247.708 210.251 247.521 210.221 247.374 210.209C246.197 210.109 244.525 210.472 243.309 211.77C242.039 213.124 238.061 214.896 235.684 215.954C235.058 216.232 234.511 216.475 234.096 216.673C231.631 217.84 231.845 221.354 231.856 221.503L231.895 222.057H259.51C259.824 222.057 260.276 221.946 260.638 221.416C261.574 220.047 261.28 216.555 260.623 214.87C259.7 212.491 258.536 211.215 257.422 211.364V207.852C258.968 207.474 259.748 207.053 259.8 207.024L260.098 206.853L260.16 198.179C260.163 197.85 259.897 197.581 259.57 197.579H259.565C259.237 197.579 258.971 197.843 258.969 198.171L258.91 206.128C258.202 206.434 256.217 207.137 252.796 207.248C249.242 207.359 247.153 206.458 246.518 206.128C246.339 205.069 245.664 201.052 244.784 195.264C244.408 192.792 243.859 188.092 243.151 181.291C242.906 178.933 242.671 176.608 242.463 174.5C242.78 174.879 243.098 175.259 243.443 175.666C250.794 184.343 269.572 205.499 269.76 205.711L270.043 206.029L270.435 205.866C270.528 205.828 271.924 205.235 273.895 203.942L275.466 206.086C275.455 206.092 275.445 206.093 275.435 206.099C274.568 206.549 274.568 207.838 274.568 208.262C274.568 209.942 274.679 212.121 274.735 213.109C273.432 213.384 270.126 214.29 268.494 216.614C267.644 217.823 267.371 219.23 267.686 220.796L267.782 221.274L280.189 221.273C280.204 221.274 280.232 221.276 280.268 221.276C280.661 221.276 282.191 221.115 284.052 218.816C285.326 217.242 288.132 213.411 290.18 210.614C291.178 209.25 291.962 208.181 292.222 207.845C292.498 207.491 292.564 207.012 292.421 206.422C292.015 204.754 289.961 202.35 288.274 201.57Z" fill="#393F49"/>
<path fill-rule="evenodd" clip-rule="evenodd" d="M236.406 92.9169C236.275 93.1648 236.14 93.4119 236.032 93.6683C235.571 94.2992 234.612 96.7867 234.392 106.544C234.378 107.189 234.362 107.827 234.348 108.459C233.498 107.775 232.602 106.962 231.695 105.98C228.586 102.608 227.191 100.36 226.713 99.5C227.997 98.4186 232.516 94.7292 236.406 92.9169ZM230.415 84.9388C230.011 84.5336 229.672 83.7754 229.404 82.9813C229.665 83.0411 229.944 83.0847 230.246 83.0847C231.208 83.0847 232.322 82.7094 233.255 81.505C233.456 81.2451 233.409 80.8707 233.149 80.669C232.887 80.4672 232.515 80.5134 232.312 80.775C230.92 82.5727 229.23 81.699 229.038 81.5913C229.027 81.5853 229.015 81.5853 229.003 81.5793C228.898 81.1442 228.822 80.7596 228.78 80.5057L228.7 80.0201L226.583 79.962C226.647 79.7919 226.728 79.6073 226.816 79.4038C227.408 78.0421 228.398 75.7631 227.474 72.1549C227.094 70.6692 227.645 68.4919 228.117 67.0515C229.009 67.5875 230.536 68.662 232.775 70.7623C233.808 71.7334 235.735 73.2371 237 72.4036C237.197 72.2754 237.403 72.119 237.614 71.9583C237.922 71.7232 238.24 71.4795 238.538 71.3274C238.763 71.212 239.552 70.8598 240.351 71.1581C240.967 71.3906 241.462 71.9719 241.824 72.8866C242.392 74.321 241.522 75.8546 240.8 76.5341C240.026 77.2633 239.201 77.7258 239.192 77.7309L238.769 77.9668L238.913 78.4302C239.006 78.7293 240.65 83.8805 243.103 87.4178C241.241 88.0624 239.593 89.0924 238.295 90.3866L237.932 83.0214L237.064 83.5899C235.718 84.4704 231.901 86.4237 230.415 84.9388ZM256.267 90.4841C260.151 92.9768 267.273 98.8922 271.1 102.07L272.317 103.08C272.536 103.262 272.658 103.53 272.648 103.815C272.639 104.101 272.5 104.362 272.268 104.531L263.1 111.188L260.405 112.964C260.311 113.027 260.215 113.017 260.166 113.002C260.117 112.988 260.029 112.951 259.979 112.846L259.884 112.704C259.859 112.678 257.462 110.024 255.287 105.928C253.26 102.11 251.95 98.7452 251.938 98.711C251.82 98.4041 251.473 98.2536 251.166 98.3707C250.859 98.4896 250.707 98.8349 250.827 99.1418C250.84 99.176 252.172 102.604 254.235 106.487C256.331 110.436 258.572 113.024 258.951 113.449C259.143 113.792 259.466 114.045 259.849 114.151C259.978 114.187 260.11 114.205 260.243 114.205C260.53 114.205 260.814 114.121 261.06 113.959L263.1 112.616L268.106 129.28C268.249 129.76 268.16 130.266 267.861 130.669C267.562 131.07 267.104 131.3 266.603 131.3H235.792C235.534 131.3 235.296 131.2 235.12 131.016C234.946 130.835 234.855 130.597 234.865 130.344C234.997 126.913 235.332 117.725 235.583 106.57C235.81 96.5175 236.827 94.618 236.967 94.4026L237.1 94.2009C238.184 91.5663 240.692 89.407 243.808 88.4265C247.808 87.1648 252.232 87.8965 256.267 90.4841ZM299.169 133.58L309.442 158.587L284.445 168.863L274.172 143.856L285.478 139.208C285.92 139.804 286.655 140.875 287.508 142.498C288.487 144.357 289.154 145.316 290.085 145.396C290.125 145.399 290.163 145.401 290.202 145.401C290.977 145.401 291.594 144.734 292.048 144.143C293.196 142.652 293.131 140.098 291.901 136.568L299.169 133.58ZM230.206 95.2771C227.67 97.0868 225.724 98.7751 225.573 98.9059L225.243 99.1957L225.422 99.5983C225.47 99.7051 226.637 102.256 230.821 106.788C232.033 108.102 233.22 109.124 234.311 109.94C234.073 119.527 233.792 127.225 233.674 130.298C233.651 130.877 233.86 131.425 234.261 131.842C234.664 132.261 235.208 132.493 235.792 132.493H266.603C267.484 132.493 268.29 132.087 268.817 131.38C269.344 130.672 269.5 129.782 269.246 128.937L264.133 111.911L271.692 106.422C272.418 107.219 273.363 108.277 274.436 109.531C276.647 112.11 278.533 114.5 280.041 116.635C284.385 122.778 288.284 131.096 289.759 134.388C290.977 137.11 291.618 139.327 291.683 140.977L290.467 137.872C290.348 137.565 290.003 137.414 289.694 137.535C289.389 137.654 289.237 138.001 289.357 138.307L291.243 143.121C291.247 143.129 291.254 143.131 291.257 143.138C291.205 143.23 291.166 143.335 291.104 143.416C291.098 143.423 291.094 143.426 291.088 143.434L288.658 138.308C288.516 138.01 288.156 137.884 287.865 138.025C287.567 138.166 287.441 138.522 287.582 138.82L290.122 144.179C289.657 144.013 288.869 142.524 288.563 141.943C287.623 140.157 286.813 138.991 286.348 138.378C286.333 138.304 286.306 138.231 286.262 138.166C285.738 137.375 285.156 136.477 285.062 136.311C284.94 136.035 284.622 135.892 284.331 135.989C284.018 136.093 283.849 136.43 283.953 136.742C283.976 136.812 284.015 136.912 284.704 137.967L282.902 138.829C282.986 137.418 283.03 135.013 282.466 133.997C281.779 132.757 277.98 127.219 272.468 121.271L267.726 116.143C267.503 115.903 267.128 115.888 266.884 116.111C266.643 116.334 266.627 116.711 266.851 116.953L271.595 122.081C276.733 127.626 280.655 133.19 281.425 134.575C281.851 135.343 281.798 137.888 281.658 139.49L272.617 143.207L283.795 170.418L310.996 159.236L299.818 132.025L291.493 135.447C291.294 134.946 291.085 134.437 290.846 133.9C289.357 130.576 285.418 122.175 281.015 115.947C279.485 113.782 277.575 111.362 275.341 108.755C274.304 107.544 273.383 106.513 272.663 105.719L272.969 105.496C273.501 105.109 273.819 104.51 273.84 103.852C273.86 103.195 273.582 102.58 273.075 102.162L271.86 101.153C270.198 99.7727 267.917 97.8775 265.543 95.9661C266.659 95.1164 267.722 93.8102 268.184 91.8022C269.47 86.2236 263.016 83.0881 260.895 82.0581C257.282 80.3022 256.455 78.4208 255.805 73.6611C255.295 69.9178 252.62 68.6244 250.471 67.5841C249.632 67.1781 248.838 66.7942 248.31 66.3249C247.713 65.7932 247.114 65.0649 246.478 64.2947C245.015 62.5175 243.357 60.5036 240.722 59.4649C235.468 57.3946 230.73 59.1299 228.551 61.6183C226.76 63.6639 226.739 65.8941 226.739 65.9881L226.744 66.4232L227.036 66.5173C226.511 68.085 225.851 70.6205 226.319 72.4506C227.142 75.6622 226.288 77.6283 225.724 78.9285C225.58 79.2585 225.456 79.5474 225.376 79.8005C225.277 80.1125 225.328 80.445 225.518 80.7126C225.707 80.9801 226.005 81.1383 226.334 81.1468L227.693 81.1844C227.905 82.2572 228.492 84.7012 229.573 85.7817C230.125 86.3339 230.829 86.5801 231.587 86.6391C231.605 87.7444 231.549 89.2121 231.234 90.8636C230.954 92.3237 230.563 93.9205 230.206 95.2771Z" fill="#393F49"/>
<path fill-rule="evenodd" clip-rule="evenodd" d="M219.927 124.857C219.597 124.857 219.331 125.124 219.331 125.453V205.757C219.331 206.086 219.597 206.352 219.927 206.352C220.256 206.352 220.522 206.086 220.522 205.757V125.453C220.522 125.124 220.256 124.857 219.927 124.857Z" fill="#393F49"/>
<path fill-rule="evenodd" clip-rule="evenodd" d="M124.355 160.349H151.38V133.313H124.355V160.349ZM123.163 161.541H152.572V132.122H123.163V161.541Z" fill="#393F49"/>
<path fill-rule="evenodd" clip-rule="evenodd" d="M163.786 160.349H190.811V133.313H163.786V160.349ZM162.595 161.541H192.002V132.122H162.595V161.541Z" fill="#393F49"/>
<path fill-rule="evenodd" clip-rule="evenodd" d="M112.976 132.121H84.1627C83.8337 132.121 83.5671 132.388 83.5671 132.717C83.5671 133.047 83.8337 133.314 84.1627 133.314H111.784V160.349H99.0422C98.7133 160.349 98.4467 160.615 98.4467 160.945C98.4467 161.274 98.7133 161.541 99.0422 161.541H112.976V132.121Z" fill="#393F49"/>
<path fill-rule="evenodd" clip-rule="evenodd" d="M124.355 121.068H151.38V94.0322H124.355V121.068ZM123.163 122.26H152.572V92.8406H123.163V122.26Z" fill="#393F49"/>
<path fill-rule="evenodd" clip-rule="evenodd" d="M84.7584 121.068H111.784V94.0322H84.7584V121.068ZM83.5673 122.26H112.976V92.8406H83.5673V122.26Z" fill="#393F49"/>
<path fill-rule="evenodd" clip-rule="evenodd" d="M129.801 172.871C130.13 172.871 130.396 172.605 130.396 172.276C130.396 171.946 130.13 171.679 129.801 171.679H123.163V201.099H152.571V171.679H141.595C141.266 171.679 141 171.946 141 172.276C141 172.605 141.266 172.871 141.595 172.871H151.38V199.906H124.355V172.871H129.801Z" fill="#393F49"/>
<path fill-rule="evenodd" clip-rule="evenodd" d="M186.664 199.907C186.335 199.907 186.069 200.173 186.069 200.502C186.069 200.832 186.335 201.099 186.664 201.099H192.003V171.679H162.595V201.099H177.725C178.054 201.099 178.32 200.832 178.32 200.502C178.32 200.173 178.054 199.907 177.725 199.907H163.786V172.872H190.811V199.907H186.664Z" fill="#393F49"/>
<path fill-rule="evenodd" clip-rule="evenodd" d="M97.0089 199.907C96.6791 199.907 96.4133 200.173 96.4133 200.502C96.4133 200.832 96.6791 201.099 97.0089 201.099H112.976V171.679H102.073C101.744 171.679 101.477 171.946 101.477 172.275C101.477 172.605 101.744 172.872 102.073 172.872H111.784V199.907H97.0089Z" fill="#393F49"/>
<path fill-rule="evenodd" clip-rule="evenodd" d="M192.74 111.851L167.978 101.023L178.802 76.2511L203.565 87.0792L199.619 96.1088C198.56 95.5207 197.176 94.8111 195.821 94.2863C193.834 93.5178 193.073 94.0965 192.794 94.5103C192.312 95.23 192.651 96.3191 193.698 97.4226C194.654 98.4288 196.334 99.7179 197.631 100.661L192.74 111.851ZM190.811 121.068H163.785V94.0324H169.732L166.41 101.639L190.811 112.309V121.068ZM233.032 112.839C232.801 112.604 232.424 112.6 232.19 112.829C231.568 113.435 230.891 114.068 230.17 114.7C226.983 117.5 223.698 117.785 218.464 115.722C213.723 113.853 204.977 108.451 201.685 106.418C201.044 106.021 200.622 105.761 200.492 105.69C199.23 104.988 198.316 104.366 197.677 103.882L198.77 101.472C199.146 101.734 199.397 101.905 199.436 101.931C199.539 102 199.654 102.033 199.77 102.033C199.96 102.033 200.148 101.941 200.263 101.77C200.448 101.497 200.375 101.127 200.102 100.943C200.062 100.916 196.146 98.2689 194.562 96.6012C193.79 95.7874 193.732 95.2522 193.785 95.1736C193.82 95.1223 194.241 94.9531 195.391 95.3976C197.991 96.4046 200.809 98.1903 200.838 98.2082C200.929 98.2672 201.03 98.2877 201.132 98.292C201.814 98.7442 202.551 99.1819 203.334 99.5478C203.797 99.764 204.891 100.268 206.334 100.933C208.936 102.131 212.676 103.855 215.912 105.361C218.104 106.383 221.27 107.039 222.978 105.529C223.225 105.31 223.248 104.934 223.03 104.687C222.812 104.441 222.437 104.417 222.189 104.635C220.999 105.686 218.361 105.189 216.414 104.282C213.177 102.773 209.435 101.05 206.832 99.8495C205.392 99.1862 204.301 98.6835 203.838 98.4673C202.687 97.9296 201.627 97.2209 200.732 96.5396L205.133 86.4638L178.187 74.6825L170.253 92.8408H162.595V122.26H192.003V112.829L193.356 113.421L197.173 104.995C197.838 105.483 198.736 106.077 199.914 106.731C200.039 106.8 200.445 107.052 201.059 107.432C204.375 109.481 213.187 114.924 218.028 116.832C220.429 117.778 222.488 118.257 224.331 118.257C226.824 118.257 228.925 117.38 230.957 115.596C231.693 114.949 232.386 114.302 233.021 113.682C233.258 113.452 233.262 113.075 233.032 112.839Z" fill="#393F49"/>
<path fill-rule="evenodd" clip-rule="evenodd" d="M229.117 74.3478C228.69 74.3478 228.343 74.7949 228.343 75.3471C228.343 75.8985 228.69 76.3456 229.117 76.3456C229.545 76.3456 229.891 75.8985 229.891 75.3471C229.891 74.7949 229.545 74.3478 229.117 74.3478Z" fill="#393F49"/>
<path fill-rule="evenodd" clip-rule="evenodd" d="M230.162 70.9314C229.224 70.3861 228.232 70.7288 227.795 71.0203C227.52 71.2016 227.446 71.5726 227.627 71.8461C227.743 72.0188 227.933 72.1128 228.125 72.1128C228.238 72.1128 228.353 72.0812 228.454 72.0136C228.46 72.0102 229.028 71.6503 229.564 71.9615C229.846 72.1248 230.212 72.0307 230.379 71.7461C230.544 71.4614 230.447 71.0964 230.162 70.9314Z" fill="#393F49"/>
<path fill-rule="evenodd" clip-rule="evenodd" d="M238.232 76.1063C238.289 76.1063 238.35 76.0978 238.409 76.0798C239.144 75.8516 240.397 75.1292 240.425 73.8735C240.439 73.2461 240.186 72.8896 239.973 72.7015C239.507 72.2912 238.893 72.3699 238.824 72.381C238.504 72.4288 238.288 72.7238 238.329 73.046C238.371 73.3674 238.652 73.5905 238.992 73.5606C239.049 73.5546 239.152 73.5649 239.186 73.5965C239.206 73.6145 239.238 73.6871 239.233 73.847C239.218 74.5514 238.065 74.9378 238.053 74.942C237.741 75.0412 237.566 75.3754 237.664 75.6883C237.744 75.943 237.978 76.1063 238.232 76.1063Z" fill="#393F49"/>
</mask>
<g mask="url(#mask4)">
<rect x="-36.975" y="-62.5054" width="381.495" height="379.11" rx="34.8" fill="#475574"/>
<rect x="-11" y="-18" width="327" height="278" rx="80" fill="#475574"/>
</g>
</svg>
