<svg width="311" height="251" viewBox="0 0 311 251" fill="none" xmlns="http://www.w3.org/2000/svg">
<path fill-rule="evenodd" clip-rule="evenodd" d="M281.19 117.379C281.146 118.817 281.029 120.718 281.119 123.231C281.132 123.86 281.19 124.526 281.196 125.236C281.206 125.947 281.216 126.699 281.227 127.497C281.259 129.092 281.386 130.867 281.351 132.847C281.13 130.428 280.69 131.784 280.485 129.867C280.504 130.264 280.52 130.666 280.519 131.075C280.493 132.009 280.449 132.966 280.389 133.925C280.328 134.883 280.265 135.846 280.167 136.788C280.018 137.724 279.871 138.645 279.729 139.533C279.468 141.111 279.182 142.556 278.836 143.781C280.221 133.611 280.075 123.418 278.343 113.587C273.687 87.1588 265.132 65.4361 252.698 48.5737C254.873 51.1347 256.937 53.8033 258.865 56.5787C259.455 56.5536 258.176 53.9109 257.242 51.9839C256.254 50.0985 255.696 48.8659 258.104 51.5448C260.094 54.3383 259.485 54.3854 259.676 55.0908L261.141 57.1923L262.507 59.3557C263.413 60.8028 264.36 62.2333 265.173 63.7353L264.595 67.3333C267.256 75.354 270.161 81.2851 273.231 88.012C276.259 94.7184 279.328 102.269 280.957 113.119C281.243 113.674 281.493 114.073 281.716 114.352C281.475 115.051 281.276 116.011 281.19 117.379ZM247.545 42.1241C245.376 39.615 243.101 37.2379 240.731 34.9825C240.98 35.1639 241.221 35.3407 241.473 35.5245C242.212 36.0886 242.913 36.7257 243.642 37.3816C244.365 38.0431 245.091 38.7501 245.813 39.5192C246.495 40.3252 247.166 41.1995 247.823 42.1516C247.893 42.3095 247.762 42.2608 247.545 42.1241ZM172.004 6.13692C172.312 5.47468 172.466 4.81558 175.015 4.59091C179.736 5.27907 189.009 7.47711 187.578 8.12128C188.135 8.32318 188.7 8.5125 189.268 8.6979C183.758 7.52346 177.999 6.67268 172.004 6.13692ZM115.814 244.089C112.884 243.876 110.376 243.756 108.891 243.874C106.908 243.127 106.279 242.638 106.314 242.287C109.523 242.983 112.815 243.595 116.21 244.104C116.081 244.1 115.941 244.094 115.814 244.089ZM63.3363 29.9705C50.4707 38.9614 41.0817 50.016 34.3824 62.4776C36.5017 58.2104 38.9327 54.0185 41.7759 50.0506C44.7126 45.9813 48.021 42.1202 51.6534 38.538C58.9589 31.4065 67.6155 25.5422 76.9001 21.099C71.5253 23.887 67.021 27.0042 63.3363 29.9705ZM286.258 130.773C286.199 130.214 286.142 129.677 286.087 129.156C285.962 128.117 285.818 127.149 285.661 126.203C285.025 122.721 284.128 119.527 282.912 114.239C283.113 113.659 283.219 112.696 283.266 111.532C283.32 109.974 283.28 108.065 283.253 106.262C283.239 104.456 283.122 102.773 283.214 101.645L283.06 103.896C282.562 102.599 282.04 101.679 281.545 100.391C281.294 99.7485 281.062 99.0116 280.821 98.0917C280.561 97.1765 280.307 96.0759 280.063 94.6941C279.074 89.1314 281.726 97.3941 281.27 93.4874C279.404 84.6678 277.372 79.7391 275.15 75.3171C274.588 74.2157 274.034 73.1308 273.466 72.0169C272.855 70.9226 272.229 69.7984 271.56 68.5996C270.286 66.1793 268.703 63.5177 266.878 60.1162C261.202 47.3993 253.409 38.7155 244.498 31.5338C240.022 27.9256 235.141 24.7684 229.815 21.6245C224.48 18.4783 218.569 15.5293 211.796 12.526C221.043 17.3172 230.401 23.4801 240.953 33.6195L238.538 31.7836C237.736 31.1724 236.872 30.6382 236.044 30.0656L233.546 28.3805L231.161 26.9586C223.569 21.3865 215.135 16.8891 205.869 13.4718C206.152 13.5575 206.438 13.6486 206.719 13.7271C207.894 14.0909 209.06 14.3619 210.118 14.7555C212.244 15.5104 214.21 16.0847 215.735 16.7862C214.768 16.014 213.554 15.3148 212.259 14.5253C210.961 13.7429 209.56 12.9196 208.088 12.2149C206.623 11.4969 205.16 10.6964 203.711 10.064C202.266 9.42141 200.883 8.79766 199.649 8.21319C194.679 6.06543 192.025 4.51627 197.67 4.51235C195.983 4.01036 194.475 3.52016 193.084 3.20122C191.693 2.88149 190.438 2.61597 189.287 2.39051C186.987 1.89874 185.074 1.79111 183.306 1.62614C182.421 1.56251 181.57 1.49259 180.712 1.4706C179.855 1.46274 178.994 1.45646 178.093 1.4486C176.293 1.44153 174.341 1.37554 171.939 1.40854C170.741 1.24671 169.306 1.11238 167.81 0.983541C166.315 0.911268 164.761 0.835853 163.323 0.765151C160.445 0.569542 158.034 0.494913 157.467 0C153.036 0.433638 151.034 0.868847 148.435 0.983541C147.134 1.0346 145.69 1.05189 143.732 1.08567C141.776 1.12023 139.285 1.02282 135.928 1.1218C126.75 2.17369 118.25 4.65532 124.482 4.36937C132.885 3.1313 141.324 2.38108 149.825 2.04878C155.889 2.80451 152.976 3.69221 149.082 4.51078C148.107 4.70953 147.07 4.92006 146.086 5.12038C145.105 5.34663 144.182 5.56423 143.436 5.76455C143.235 5.81876 143.051 5.87139 142.878 5.92245C141.642 6.00494 140.398 6.09764 139.145 6.20133C119.646 7.82041 103.155 11.4003 89.246 16.5859C92.1585 15.1726 95.1209 13.8403 98.1308 12.5904C92.4359 14.3226 86.8103 16.3078 81.3405 18.7006C82.5366 17.4154 85.1125 15.38 85.7195 14.2896C86.3358 13.2432 84.8772 12.9298 77.9924 15.5897C72.7533 18.5074 67.8796 21.8547 63.2724 25.4063C58.6761 28.9791 54.3392 32.7946 50.3405 36.9692C42.3089 45.2877 35.3789 54.68 29.1347 65.4746L27.7852 68.3042L26.5587 71.1928C25.7017 73.1072 25.0495 75.1002 24.2883 77.0595C22.9543 81.0368 21.6812 85.0613 20.7384 89.1754C18.6977 97.38 17.6077 105.818 16.9204 114.306C15.5904 131.291 16.721 149.018 21.7824 166.115C21.6858 163.073 22.2967 164.941 22.7237 166.176C23.2192 167.401 23.3821 168.029 22.5967 162.584C23.0969 163.837 23.5543 165.032 24.007 166.26C24.1628 166.635 24.3147 167.024 24.4682 167.409C25.6666 171.783 27.0886 176.029 28.7428 180.128C26.9896 177.672 26.4333 177.158 26.4029 177.95C26.3632 178.792 27.1587 180.976 28.0438 183.5C28.4584 184.776 29.0903 186.052 29.585 187.321C30.0868 188.588 30.5652 189.794 30.9657 190.804C31.7831 192.81 32.0745 194.145 31.0982 193.776C35.4678 201.097 37.3915 204.864 39.4727 208.888C40.5635 210.858 41.617 212.96 43.4137 215.279C45.1224 217.677 47.5153 220.345 51.0885 223.513C53.5304 225.02 54.2917 225.166 54.0151 224.496C53.8772 224.159 53.4782 223.618 52.8985 222.935C52.3259 222.242 51.5327 221.455 50.7348 220.468C49.1001 218.539 47.0228 216.315 45.3203 214.053C44.4578 212.935 43.5664 211.925 42.8964 210.924C42.2216 209.933 41.631 209.068 41.1791 208.406C41.7681 209.049 42.4281 209.863 43.1262 210.764C43.808 211.68 44.6479 212.575 45.4279 213.529C44.8638 212.72 44.3176 211.911 43.8064 211.112C43.335 210.276 42.8932 209.453 42.4857 208.657C41.6855 207.053 40.9609 205.611 40.5775 204.262C40.1023 202.756 39.8693 201.554 39.9121 200.764C46.2 209.7 53.9855 217.554 63.309 224.105C62.7558 225.297 62.5197 226.635 66.3104 228.968C66.8916 229.855 68.4718 231.128 70.6838 232.338C71.7778 232.964 72.9995 233.629 74.2883 234.299C75.6152 234.888 77.0006 235.503 78.3867 236.118C79.0794 236.423 79.7721 236.727 80.4577 237.029C81.1566 237.293 81.8485 237.556 82.5249 237.812C83.8752 238.33 85.1592 238.838 86.3124 239.329C88.639 240.246 90.4771 241.008 91.2461 241.755C100.747 244.306 109.172 246.518 116.561 247.917C120.258 248.503 123.665 249.079 126.775 249.073C129.88 249.142 132.666 248.94 135.095 248.121C137.455 248.63 139.826 249.264 142.219 249.671L149.445 250.969C152.366 251.058 155.052 250.938 157.56 250.808C158.186 250.769 158.802 250.738 159.407 250.681C160.011 250.603 160.605 250.527 161.191 250.452C162.36 250.292 163.493 250.121 164.597 249.941C165.698 249.749 166.773 249.562 167.832 249.378C168.884 249.156 169.913 248.888 170.931 248.641C172.965 248.125 174.962 247.652 176.968 247.104C178.694 246.159 176.43 246.282 174.91 246.02C174.151 245.91 173.586 245.76 173.799 245.455C173.906 245.302 174.207 245.111 174.775 244.867C175.345 244.631 176.18 244.332 177.338 243.89C179.055 243.4 181.376 242.768 183.701 242.243C186.004 241.615 188.306 241.064 190.046 240.914C191.124 241.307 186.773 242.923 185.81 243.379C194.892 240.868 202.544 238.65 209.777 236.465C217.016 234.306 223.724 231.862 230.404 228.429C232.449 226.999 234.633 225.565 236.749 223.897C237.826 223.089 238.916 222.27 240.018 221.444C241.079 220.565 242.151 219.677 243.228 218.784C247.568 215.252 251.643 211.222 255.383 207.239C262.749 199.141 268 190.585 269.969 185.022L266.84 189.914C265.756 191.514 264.596 193.061 263.477 194.631C264.651 192.873 265.49 191.519 266.08 190.471C266.651 189.409 266.932 188.624 267.097 188.068C267.41 186.946 267.129 186.651 266.903 186.314C266.396 185.603 266.407 184.936 270.871 176.827C272.529 173.78 273.683 171.904 274.363 170.743C275.085 169.602 275.506 169.253 275.785 169.291C276.345 169.361 276.331 170.995 277.079 170.798C277.46 169.877 277.855 168.874 278.259 167.812C278.644 166.744 278.969 165.592 279.333 164.419C279.675 163.24 280.076 162.045 280.376 160.807C280.671 159.57 280.967 158.322 281.262 157.087C281.411 156.471 281.558 155.857 281.704 155.25C281.821 154.636 281.937 154.028 282.052 153.429C282.296 152.235 282.534 151.076 282.758 149.977C283.202 147.776 283.524 145.794 283.975 144.259C283.426 148.786 284.012 147.104 284.663 144.781C285.014 143.625 285.289 142.298 285.456 141.529C285.635 140.761 285.724 140.556 285.63 141.638C285.887 139.769 286.125 138.109 286.224 136.605C286.29 135.097 286.313 133.754 286.302 132.529C286.295 131.915 286.288 131.333 286.258 130.773Z" fill="#FFDFD6"/>
<mask id="mask0" mask-type="alpha" maskUnits="userSpaceOnUse" x="16" y="0" width="271" height="251">
<path fill-rule="evenodd" clip-rule="evenodd" d="M281.19 117.379C281.146 118.817 281.029 120.718 281.119 123.231C281.132 123.86 281.19 124.526 281.196 125.236C281.206 125.947 281.216 126.699 281.227 127.497C281.259 129.092 281.386 130.867 281.351 132.847C281.13 130.428 280.69 131.784 280.485 129.867C280.504 130.264 280.52 130.666 280.519 131.075C280.493 132.009 280.449 132.966 280.389 133.925C280.328 134.883 280.265 135.846 280.167 136.788C280.018 137.724 279.871 138.645 279.729 139.533C279.468 141.111 279.182 142.556 278.836 143.781C280.221 133.611 280.075 123.418 278.343 113.587C273.687 87.1588 265.132 65.4361 252.698 48.5737C254.873 51.1347 256.937 53.8033 258.865 56.5787C259.455 56.5536 258.176 53.9109 257.242 51.9839C256.254 50.0985 255.696 48.8659 258.104 51.5448C260.094 54.3383 259.485 54.3854 259.676 55.0908L261.141 57.1923L262.507 59.3557C263.413 60.8028 264.36 62.2333 265.173 63.7353L264.595 67.3333C267.256 75.354 270.161 81.2851 273.231 88.012C276.259 94.7184 279.328 102.269 280.957 113.119C281.243 113.674 281.493 114.073 281.716 114.352C281.475 115.051 281.276 116.011 281.19 117.379ZM247.545 42.1241C245.376 39.615 243.101 37.2379 240.731 34.9825C240.98 35.1639 241.221 35.3407 241.473 35.5245C242.212 36.0886 242.913 36.7257 243.642 37.3816C244.365 38.0431 245.091 38.7501 245.813 39.5192C246.495 40.3252 247.166 41.1995 247.823 42.1516C247.893 42.3095 247.762 42.2608 247.545 42.1241ZM172.004 6.13692C172.312 5.47468 172.466 4.81558 175.015 4.59091C179.736 5.27907 189.009 7.47711 187.578 8.12128C188.135 8.32318 188.7 8.5125 189.268 8.6979C183.758 7.52346 177.999 6.67268 172.004 6.13692ZM115.814 244.089C112.884 243.876 110.376 243.756 108.891 243.874C106.908 243.127 106.279 242.638 106.314 242.287C109.523 242.983 112.815 243.595 116.21 244.104C116.081 244.1 115.941 244.094 115.814 244.089ZM63.3363 29.9705C50.4707 38.9614 41.0817 50.016 34.3824 62.4776C36.5017 58.2104 38.9327 54.0185 41.7759 50.0506C44.7126 45.9813 48.021 42.1202 51.6534 38.538C58.9589 31.4065 67.6155 25.5422 76.9001 21.099C71.5253 23.887 67.021 27.0042 63.3363 29.9705ZM286.258 130.773C286.199 130.214 286.142 129.677 286.087 129.156C285.962 128.117 285.818 127.149 285.661 126.203C285.025 122.721 284.128 119.527 282.912 114.239C283.113 113.659 283.219 112.696 283.266 111.532C283.32 109.974 283.28 108.065 283.253 106.262C283.239 104.456 283.122 102.773 283.214 101.645L283.06 103.896C282.562 102.599 282.04 101.679 281.545 100.391C281.294 99.7485 281.062 99.0116 280.821 98.0917C280.561 97.1765 280.307 96.0759 280.063 94.6941C279.074 89.1314 281.726 97.3941 281.27 93.4874C279.404 84.6678 277.372 79.7391 275.15 75.3171C274.588 74.2157 274.034 73.1308 273.466 72.0169C272.855 70.9226 272.229 69.7984 271.56 68.5996C270.286 66.1793 268.703 63.5177 266.878 60.1162C261.202 47.3993 253.409 38.7155 244.498 31.5338C240.022 27.9256 235.141 24.7684 229.815 21.6245C224.48 18.4783 218.569 15.5293 211.796 12.526C221.043 17.3172 230.401 23.4801 240.953 33.6195L238.538 31.7836C237.736 31.1724 236.872 30.6382 236.044 30.0656L233.546 28.3805L231.161 26.9586C223.569 21.3865 215.135 16.8891 205.869 13.4718C206.152 13.5575 206.438 13.6486 206.719 13.7271C207.894 14.0909 209.06 14.3619 210.118 14.7555C212.244 15.5104 214.21 16.0847 215.735 16.7862C214.768 16.014 213.554 15.3148 212.259 14.5253C210.961 13.7429 209.56 12.9196 208.088 12.2149C206.623 11.4969 205.16 10.6964 203.711 10.064C202.266 9.42141 200.883 8.79766 199.649 8.21319C194.679 6.06543 192.025 4.51627 197.67 4.51235C195.983 4.01036 194.475 3.52016 193.084 3.20122C191.693 2.88149 190.438 2.61597 189.287 2.39051C186.987 1.89874 185.074 1.79111 183.306 1.62614C182.421 1.56251 181.57 1.49259 180.712 1.4706C179.855 1.46274 178.994 1.45646 178.093 1.4486C176.293 1.44153 174.341 1.37554 171.939 1.40854C170.741 1.24671 169.306 1.11238 167.81 0.983541C166.315 0.911268 164.761 0.835853 163.323 0.765151C160.445 0.569542 158.034 0.494913 157.467 0C153.036 0.433638 151.034 0.868847 148.435 0.983541C147.134 1.0346 145.69 1.05189 143.732 1.08567C141.776 1.12023 139.285 1.02282 135.928 1.1218C126.75 2.17369 118.25 4.65532 124.482 4.36937C132.885 3.1313 141.324 2.38108 149.825 2.04878C155.889 2.80451 152.976 3.69221 149.082 4.51078C148.107 4.70953 147.07 4.92006 146.086 5.12038C145.105 5.34663 144.182 5.56423 143.436 5.76455C143.235 5.81876 143.051 5.87139 142.878 5.92245C141.642 6.00494 140.398 6.09764 139.145 6.20133C119.646 7.82041 103.155 11.4003 89.246 16.5859C92.1585 15.1726 95.1209 13.8403 98.1308 12.5904C92.4359 14.3226 86.8103 16.3078 81.3405 18.7006C82.5366 17.4154 85.1125 15.38 85.7195 14.2896C86.3358 13.2432 84.8772 12.9298 77.9924 15.5897C72.7533 18.5074 67.8796 21.8547 63.2724 25.4063C58.6761 28.9791 54.3392 32.7946 50.3405 36.9692C42.3089 45.2877 35.3789 54.68 29.1347 65.4746L27.7852 68.3042L26.5587 71.1928C25.7017 73.1072 25.0495 75.1002 24.2883 77.0595C22.9543 81.0368 21.6812 85.0613 20.7384 89.1754C18.6977 97.38 17.6077 105.818 16.9204 114.306C15.5904 131.291 16.721 149.018 21.7824 166.115C21.6858 163.073 22.2967 164.941 22.7237 166.176C23.2192 167.401 23.3821 168.029 22.5967 162.584C23.0969 163.837 23.5543 165.032 24.007 166.26C24.1628 166.635 24.3147 167.024 24.4682 167.409C25.6666 171.783 27.0886 176.029 28.7428 180.128C26.9896 177.672 26.4333 177.158 26.4029 177.95C26.3632 178.792 27.1587 180.976 28.0438 183.5C28.4584 184.776 29.0903 186.052 29.585 187.321C30.0868 188.588 30.5652 189.794 30.9657 190.804C31.7831 192.81 32.0745 194.145 31.0982 193.776C35.4678 201.097 37.3915 204.864 39.4727 208.888C40.5635 210.858 41.617 212.96 43.4137 215.279C45.1224 217.677 47.5153 220.345 51.0885 223.513C53.5304 225.02 54.2917 225.166 54.0151 224.496C53.8772 224.159 53.4782 223.618 52.8985 222.935C52.3259 222.242 51.5327 221.455 50.7348 220.468C49.1001 218.539 47.0228 216.315 45.3203 214.053C44.4578 212.935 43.5664 211.925 42.8964 210.924C42.2216 209.933 41.631 209.068 41.1791 208.406C41.7681 209.049 42.4281 209.863 43.1262 210.764C43.808 211.68 44.6479 212.575 45.4279 213.529C44.8638 212.72 44.3176 211.911 43.8064 211.112C43.335 210.276 42.8932 209.453 42.4857 208.657C41.6855 207.053 40.9609 205.611 40.5775 204.262C40.1023 202.756 39.8693 201.554 39.9121 200.764C46.2 209.7 53.9855 217.554 63.309 224.105C62.7558 225.297 62.5197 226.635 66.3104 228.968C66.8916 229.855 68.4718 231.128 70.6838 232.338C71.7778 232.964 72.9995 233.629 74.2883 234.299C75.6152 234.888 77.0006 235.503 78.3867 236.118C79.0794 236.423 79.7721 236.727 80.4577 237.029C81.1566 237.293 81.8485 237.556 82.5249 237.812C83.8752 238.33 85.1592 238.838 86.3124 239.329C88.639 240.246 90.4771 241.008 91.2461 241.755C100.747 244.306 109.172 246.518 116.561 247.917C120.258 248.503 123.665 249.079 126.775 249.073C129.88 249.142 132.666 248.94 135.095 248.121C137.455 248.63 139.826 249.264 142.219 249.671L149.445 250.969C152.366 251.058 155.052 250.938 157.56 250.808C158.186 250.769 158.802 250.738 159.407 250.681C160.011 250.603 160.605 250.527 161.191 250.452C162.36 250.292 163.493 250.121 164.597 249.941C165.698 249.749 166.773 249.562 167.832 249.378C168.884 249.156 169.913 248.888 170.931 248.641C172.965 248.125 174.962 247.652 176.968 247.104C178.694 246.159 176.43 246.282 174.91 246.02C174.151 245.91 173.586 245.76 173.799 245.455C173.906 245.302 174.207 245.111 174.775 244.867C175.345 244.631 176.18 244.332 177.338 243.89C179.055 243.4 181.376 242.768 183.701 242.243C186.004 241.615 188.306 241.064 190.046 240.914C191.124 241.307 186.773 242.923 185.81 243.379C194.892 240.868 202.544 238.65 209.777 236.465C217.016 234.306 223.724 231.862 230.404 228.429C232.449 226.999 234.633 225.565 236.749 223.897C237.826 223.089 238.916 222.27 240.018 221.444C241.079 220.565 242.151 219.677 243.228 218.784C247.568 215.252 251.643 211.222 255.383 207.239C262.749 199.141 268 190.585 269.969 185.022L266.84 189.914C265.756 191.514 264.596 193.061 263.477 194.631C264.651 192.873 265.49 191.519 266.08 190.471C266.651 189.409 266.932 188.624 267.097 188.068C267.41 186.946 267.129 186.651 266.903 186.314C266.396 185.603 266.407 184.936 270.871 176.827C272.529 173.78 273.683 171.904 274.363 170.743C275.085 169.602 275.506 169.253 275.785 169.291C276.345 169.361 276.331 170.995 277.079 170.798C277.46 169.877 277.855 168.874 278.259 167.812C278.644 166.744 278.969 165.592 279.333 164.419C279.675 163.24 280.076 162.045 280.376 160.807C280.671 159.57 280.967 158.322 281.262 157.087C281.411 156.471 281.558 155.857 281.704 155.25C281.821 154.636 281.937 154.028 282.052 153.429C282.296 152.235 282.534 151.076 282.758 149.977C283.202 147.776 283.524 145.794 283.975 144.259C283.426 148.786 284.012 147.104 284.663 144.781C285.014 143.625 285.289 142.298 285.456 141.529C285.635 140.761 285.724 140.556 285.63 141.638C285.887 139.769 286.125 138.109 286.224 136.605C286.29 135.097 286.313 133.754 286.302 132.529C286.295 131.915 286.288 131.333 286.258 130.773Z" fill="white"/>
</mask>
<g mask="url(#mask0)">
<rect x="-11" y="-22" width="327" height="294" rx="80" fill="#FFDFD6"/>
</g>
<path fill-rule="evenodd" clip-rule="evenodd" d="M159.02 76.2423C155.508 76.2423 152.634 73.3515 152.634 69.8174C152.634 66.2841 155.508 63.3925 159.02 63.3925C162.532 63.3925 165.405 66.2841 165.405 69.8174C165.405 73.3515 162.532 76.2423 159.02 76.2423Z" fill="white"/>
<path fill-rule="evenodd" clip-rule="evenodd" d="M179.454 76.2423C175.941 76.2423 173.068 73.3515 173.068 69.8174C173.068 66.2841 175.941 63.3925 179.454 63.3925C182.965 63.3925 185.839 66.2841 185.839 69.8174C185.839 73.3515 182.965 76.2423 179.454 76.2423Z" fill="white"/>
<path fill-rule="evenodd" clip-rule="evenodd" d="M201.591 76.2423C198.078 76.2423 195.205 73.3515 195.205 69.8174C195.205 66.2841 198.078 63.3925 201.591 63.3925C205.103 63.3925 207.976 66.2841 207.976 69.8174C207.976 73.3515 205.103 76.2423 201.591 76.2423Z" fill="white"/>
<path fill-rule="evenodd" clip-rule="evenodd" d="M112.192 200.457C108.679 200.457 105.806 197.567 105.806 194.032C105.806 190.499 108.679 187.607 112.192 187.607C115.703 187.607 118.577 190.499 118.577 194.032C118.577 197.567 115.703 200.457 112.192 200.457Z" fill="white"/>
<path fill-rule="evenodd" clip-rule="evenodd" d="M134.329 200.457C130.816 200.457 127.943 197.567 127.943 194.032C127.943 190.499 130.816 187.607 134.329 187.607C137.84 187.607 140.714 190.499 140.714 194.032C140.714 197.567 137.84 200.457 134.329 200.457Z" fill="white"/>
<path fill-rule="evenodd" clip-rule="evenodd" d="M154.763 200.457C151.251 200.457 148.377 197.567 148.377 194.032C148.377 190.499 151.251 187.607 154.763 187.607C158.275 187.607 161.148 190.499 161.148 194.032C161.148 197.567 158.275 200.457 154.763 200.457Z" fill="white"/>
<path fill-rule="evenodd" clip-rule="evenodd" d="M118.996 162.403H15.6757C7.24513 162.403 0.410217 155.545 0.410217 147.083V59.9022C0.410217 51.4404 7.24513 44.5816 15.6757 44.5816H118.996C127.426 44.5816 134.261 51.4404 134.261 59.9022V147.083C134.261 155.545 127.426 162.403 118.996 162.403Z" fill="white"/>
<path fill-rule="evenodd" clip-rule="evenodd" d="M296.022 225.409H190.659C182.792 225.409 176.415 219.009 176.415 211.114V121.883C176.415 113.988 182.792 107.587 190.659 107.587H296.022C303.889 107.587 310.266 113.988 310.266 121.883V211.114C310.266 219.009 303.889 225.409 296.022 225.409Z" fill="white"/>
<path fill-rule="evenodd" clip-rule="evenodd" d="M300.253 181.989C298.586 180.036 289.6 166.724 278.631 152.216C270.998 142.121 259.938 139.428 254.369 138.711C254.406 140.173 254.411 141.14 254.411 141.14C254.411 141.14 253.035 147.619 242.978 147.306C230.418 146.917 232.174 142.063 232.174 142.063C232.174 142.063 232.664 140.676 233.069 139.273C230.282 140.313 223.979 143.259 216.207 150.674C212.46 154.25 200.989 169.715 200.989 169.715C200.989 169.715 201.683 171.455 202.847 173.909H214.649C215.816 173.909 216.888 174.558 217.431 175.597L236.89 212.784H211.758L210.08 225.822H280.624L273.079 199.153C273.079 199.153 295.07 188.363 300.253 181.989Z" fill="#FC77A0"/>
<mask id="mask1" mask-type="alpha" maskUnits="userSpaceOnUse" x="200" y="138" width="101" height="88">
<path fill-rule="evenodd" clip-rule="evenodd" d="M300.253 181.989C298.586 180.036 289.6 166.724 278.631 152.216C270.998 142.121 259.938 139.428 254.369 138.711C254.406 140.173 254.411 141.14 254.411 141.14C254.411 141.14 253.035 147.619 242.978 147.306C230.418 146.917 232.174 142.063 232.174 142.063C232.174 142.063 232.664 140.676 233.069 139.273C230.282 140.313 223.979 143.259 216.207 150.674C212.46 154.25 200.989 169.715 200.989 169.715C200.989 169.715 201.683 171.455 202.847 173.909H214.649C215.816 173.909 216.888 174.558 217.431 175.597L236.89 212.784H211.758L210.08 225.822H280.624L273.079 199.153C273.079 199.153 295.07 188.363 300.253 181.989Z" fill="white"/>
</mask>
<g mask="url(#mask1)">
<rect x="171" y="97" width="148" height="148" rx="74" fill="#FC77A0"/>
<rect x="-27.3585" y="-49.9607" width="367.522" height="371.976" rx="32.8145" fill="#FC77A0"/>
</g>
<path fill-rule="evenodd" clip-rule="evenodd" d="M183.838 135.751C183.838 135.751 183.633 138.639 183.222 143.591C182.812 148.542 182.402 149.367 183.428 150.605C184.454 151.843 188.557 157.207 193.482 163.809C198.406 170.41 200.252 172.061 200.252 172.061L201.465 170.801L209.934 190.696L216.051 204.038C216.051 204.038 207.209 208.008 200.252 205.276C190.369 201.395 184.043 182.17 180.35 175.774C176.656 169.379 173.579 163.19 173.579 163.19C173.579 163.19 167.219 159.269 163.114 153.906C159.011 148.542 158.601 147.098 158.806 145.86C159.011 144.622 159.69 144.821 159.69 144.821C159.69 144.821 156.738 141.554 157.704 139.613C158.342 138.329 159.831 139.114 159.831 139.114C159.831 139.114 158.91 136.261 160.4 135.404C161.647 134.688 162.883 135.832 162.883 135.832C162.883 135.832 161.867 134.226 163.642 133.441C165.415 132.656 172.389 138.186 174.305 139.898C176.221 141.61 177.427 143.037 177.427 143.037C177.427 143.037 179.749 133.886 183.838 135.751Z" fill="white"/>
<path fill-rule="evenodd" clip-rule="evenodd" d="M256.668 113.674C254.822 113.469 253.143 114.492 253.143 114.492C253.143 114.492 253.59 108.524 250.665 102.679C247.739 96.8328 233.764 95.2431 228.681 101.127C228.681 101.127 226.1 112.468 226.367 120.133C226.631 127.676 231.125 130.58 233.904 131.368C233.808 133.079 233.669 135.122 233.484 136.8C233.317 138.312 232.082 141.812 232.082 141.812C232.082 141.812 230.327 146.667 242.88 147.058C252.93 147.37 254.306 140.887 254.306 140.887C254.306 140.887 254.286 136.956 254.028 132.938C253.9 130.944 253.797 127.083 253.727 123.701C255.462 123.845 257.889 123.577 259.504 121.414C262.254 117.733 259.067 113.94 256.668 113.674Z" fill="white"/>
<path fill-rule="evenodd" clip-rule="evenodd" d="M296.452 185.176C296.452 185.176 299.591 189.712 301.48 201.164C303.37 212.617 296.081 219.117 282.78 221.326C273.891 222.801 240.164 221.498 240.164 221.498C240.164 221.498 227.683 224.757 221.365 222.779C215.047 220.801 207.664 215.089 207.664 215.089L242.021 215.867L245.041 212.573L274.42 203.396L272.536 199.267C272.536 199.267 278.871 196.096 284.628 192.691C291.086 188.873 296.452 185.176 296.452 185.176Z" fill="white"/>
<path fill-rule="evenodd" clip-rule="evenodd" d="M184.724 215.961H260.775C261.088 215.961 261.341 215.706 261.341 215.392V213.257C261.341 212.942 261.088 212.688 260.775 212.688H184.724C184.411 212.688 184.158 212.942 184.158 213.257V215.392C184.158 215.706 184.411 215.961 184.724 215.961Z" fill="white"/>
<path fill-rule="evenodd" clip-rule="evenodd" d="M166.589 173.674H214.566C215.733 173.674 216.805 174.325 217.348 175.364L236.794 212.573H184.158L165.112 176.131C164.529 175.015 165.334 173.674 166.589 173.674Z" fill="white"/>
<path fill-rule="evenodd" clip-rule="evenodd" d="M196.9 195.9C198.728 197.517 201.172 197.728 202.359 196.371C203.546 195.015 203.026 192.604 201.198 190.987C199.37 189.37 196.927 189.16 195.74 190.516C194.553 191.873 195.072 194.283 196.9 195.9Z" fill="white"/>
<path fill-rule="evenodd" clip-rule="evenodd" d="M11.8953 130.957C11.8953 130.957 21.1564 104.884 31.4093 93.0176C41.6622 81.1516 53.926 80.9122 53.926 80.9122L81.1972 86.0315C81.1972 86.0315 87.307 92.7112 93.095 95.5528C98.883 98.3935 100.214 97.9841 102.861 97.9841C105.507 97.9841 105.399 98.4424 105.399 98.4424C105.399 98.4424 108.772 103.642 110.64 108.115C113.716 115.484 115.671 124.698 115.671 124.698L98.3845 125.776L102.3 162.226L91.6582 162.243H32.3323L35.7087 137.476C35.7087 137.476 23.9671 139.147 11.8953 130.957Z" fill="#FFCB57"/>
<mask id="mask2" mask-type="alpha" maskUnits="userSpaceOnUse" x="11" y="80" width="105" height="83">
<path fill-rule="evenodd" clip-rule="evenodd" d="M11.8953 130.957C11.8953 130.957 21.1564 104.884 31.4093 93.0176C41.6622 81.1516 53.926 80.9122 53.926 80.9122L81.1972 86.0315C81.1972 86.0315 87.307 92.7112 93.095 95.5528C98.883 98.3935 100.214 97.9841 102.861 97.9841C105.507 97.9841 105.399 98.4424 105.399 98.4424C105.399 98.4424 108.772 103.642 110.64 108.115C113.716 115.484 115.671 124.698 115.671 124.698L98.3845 125.776L102.3 162.226L91.6582 162.243H32.3323L35.7087 137.476C35.7087 137.476 23.9671 139.147 11.8953 130.957Z" fill="white"/>
</mask>
<g mask="url(#mask2)">
<rect x="-13" y="53" width="154" height="126" rx="63" fill="#FFCB57"/>
</g>
<path fill-rule="evenodd" clip-rule="evenodd" d="M93.6201 48.1478C90.0974 40.9358 77.3732 42.7146 72.9186 47.7628C68.4639 52.81 66.5343 53.6425 66.5343 53.6425C66.5343 53.6425 65.426 52.2222 63.234 51.8911C60.5011 51.4787 56.5959 54.4528 58.3704 58.8498C59.3348 61.2404 61.4194 62.1987 63.1275 62.5803H63.1267C63.1267 62.5803 61.9553 72.7826 60.9926 76.8185C60.0299 80.8553 53.7266 81.0607 53.7266 81.0607C53.7266 81.0607 56.952 91.5334 67.2269 92.9853C80.0602 94.7975 81.0867 86.1644 81.0867 86.1644C81.0867 86.1644 78.2694 85.2703 78.9024 81.5834C79.2117 79.779 79.5073 78.0395 79.7288 76.7304C80.0747 76.7629 80.4154 76.7852 80.746 76.7869C84.6997 76.8091 89.4747 73.9394 91.7578 66.3741C94.0418 58.8087 93.6201 48.1478 93.6201 48.1478Z" fill="white"/>
<path fill-rule="evenodd" clip-rule="evenodd" d="M52.0672 108.712L64.5145 127.29L68.9368 125.401L56.4955 106.286C56.4955 106.286 55.1946 104.59 53.2837 105.601C50.6922 106.971 52.0672 108.712 52.0672 108.712Z" fill="white"/>
<path fill-rule="evenodd" clip-rule="evenodd" d="M13.5742 132.888C13.5742 132.888 7.83143 143.436 10.5976 154.379C13.3638 165.322 21.6052 166.544 24.8178 166.515C28.0303 166.486 38.025 161.836 47.546 148.842C57.0679 135.848 58.2111 135.215 58.2111 135.215L70.103 131.762L72.3947 124.385C72.3947 124.385 66.2549 121.791 61.5881 120.753C56.9222 119.715 54.9296 121.065 50.7501 124.996C46.5706 128.928 32.796 138.496 32.796 138.496L32.1749 138.223C32.1749 138.223 27.3301 138.091 19.2224 135.622C16.4094 134.764 13.5742 132.888 13.5742 132.888Z" fill="white"/>
<path fill-rule="evenodd" clip-rule="evenodd" d="M126.296 122.825L124.253 122.968L121.534 118.002C121.534 118.002 117.604 118.265 107.869 118.713C98.8116 119.129 97.2551 123.97 97.2551 123.97C97.2551 123.97 93.4471 119.26 83.6015 119.186C77.8229 119.142 70.4181 119.1 70.4181 119.1L68.3692 124.093L68.244 124.09C67.8095 124.078 67.4194 124.267 67.2822 124.555L54.6722 150.972C54.5214 151.287 54.8664 151.618 55.3418 151.613L83.2922 151.34C83.2922 151.34 83.8997 152.591 87.0935 152.672C90.2873 152.752 91.2909 150.744 91.2909 150.744L112.787 148.802C113.16 148.76 113.47 148.58 113.603 148.331L126.971 123.417C127.135 123.107 126.763 122.781 126.296 122.825Z" fill="white"/>
<path fill-rule="evenodd" clip-rule="evenodd" d="M219.616 212.495C220.075 211.207 222.666 211.361 225.803 212.088C228.029 212.605 230.568 212.73 232.851 213.265C238.605 214.614 242.248 216.925 242.248 216.925L235.34 220.064C235.34 220.064 218.409 215.882 219.616 212.495Z" fill="white"/>
<path fill-rule="evenodd" clip-rule="evenodd" d="M123.103 133.016C121.055 131.839 112.673 131 110.067 130.747C107.459 130.495 107.122 130.428 106.714 131.084C105.876 132.428 107.179 133.771 107.179 133.771C107.179 133.771 105.503 133.687 105.597 135.284C105.655 136.294 107.459 137.804 107.459 137.804C107.459 137.804 105.689 138.224 107.179 140.492C107.663 141.229 111.636 143.439 115.211 145.333L113.603 148.331C113.471 148.58 113.161 148.76 112.787 148.802L100.933 149.873L102.257 162.126L92.265 162.142L92.2352 162.725H115.341C116.295 161.457 117.214 160.083 118.151 158.644C120.584 154.906 122.522 150.881 123.547 148.606C124.755 148.178 125.751 146.694 125.804 143.096C125.897 136.796 125.152 134.192 123.103 133.016Z" fill="white"/>
<mask id="mask3" mask-type="alpha" maskUnits="userSpaceOnUse" x="0" y="28" width="311" height="198">
<path fill-rule="evenodd" clip-rule="evenodd" d="M175.98 173.439H177.168V169.848C176.743 169.061 176.346 168.318 175.98 167.625V173.439Z" fill="#393F49"/>
<path fill-rule="evenodd" clip-rule="evenodd" d="M239.138 112.803C239.022 113.624 239.437 114.362 240.064 114.452C240.692 114.542 241.295 113.95 241.412 113.128C241.529 112.307 241.114 111.568 240.486 111.478C239.858 111.389 239.255 111.982 239.138 112.803Z" fill="#393F49"/>
<path fill-rule="evenodd" clip-rule="evenodd" d="M133.832 147.04C133.832 155.125 127.287 161.703 119.241 161.703H116.762C117.514 160.65 118.24 159.577 118.913 158.543C121.281 154.904 123.192 150.971 124.251 148.639C125.435 148.093 126.604 146.565 126.662 142.671C126.757 136.162 125.973 133.385 123.662 132.058C123.525 131.979 123.353 131.9 123.164 131.823L127.758 123.254C127.92 122.949 127.902 122.595 127.71 122.306C127.47 121.943 126.999 121.74 126.519 121.786L124.854 121.902L122.319 117.269C122.209 117.066 122.004 116.947 121.759 116.961C121.73 116.962 119.555 117.106 114.6 117.357C113.883 115.024 112.962 112.188 111.791 108.906C109.808 103.341 107.492 99.8143 106.298 98.2169C107.834 97.7547 108.993 96.7882 109.372 95.0248C110.673 88.9821 108.722 87.0218 105.635 84.5718C102.547 82.1218 100.759 79.9989 104.497 77.8751C108.235 75.7521 108.072 69.8721 105.309 67.9117C102.547 65.9514 99.2964 62.8483 100.271 59.7452C101.246 56.6413 104.296 54.4866 102.221 46.5153C102.072 45.9383 101.87 45.4213 101.646 44.9325H119.241C127.287 44.9325 133.832 51.5102 133.832 59.5954V147.04ZM65.773 120.768C64.5056 120.366 63.2032 119.995 61.9894 119.725C61.4851 119.613 61.0268 119.546 60.5745 119.488L52.8343 107.928L52.8096 107.895C52.8062 107.891 52.4816 107.453 52.5949 106.942C52.6946 106.49 53.123 106.053 53.8343 105.676C54.1784 105.494 54.4961 105.425 54.7798 105.425C55.6571 105.425 56.215 106.091 56.2721 106.159L65.773 120.768ZM108.108 117.67C101.858 117.958 99.0152 120.295 97.7937 121.879C95.0109 104.332 90.7272 97.0236 90.539 96.712C90.3695 96.4304 90.0041 96.3414 89.723 96.5117C89.4436 96.6829 89.3541 97.0493 89.5228 97.3318C89.5679 97.4054 93.8371 104.718 96.5876 121.866C94.6753 120.398 90.6829 118.195 83.8763 118.143C78.0968 118.099 70.6939 118.056 70.6939 118.056H70.6905C70.4494 118.056 70.2322 118.202 70.1411 118.426L68.7611 121.789C68.3753 121.65 67.9945 121.511 67.5823 121.368L57.2398 105.468C56.6844 104.744 55.1435 103.636 53.2815 104.62C52.2261 105.178 51.6034 105.88 51.4305 106.706C51.2244 107.69 51.7397 108.451 51.8581 108.609L59.0839 119.4C55.9995 119.439 53.9118 121.017 50.6188 124.118C49.5523 125.12 47.2601 126.919 44.4543 129.031C45.7601 125.29 48.5063 117.066 49.4876 111.393C49.5438 111.069 49.3274 110.759 49.0037 110.703C48.6809 110.65 48.3734 110.865 48.3172 111.189C47.146 117.954 43.4092 128.457 42.7388 130.313C40.0361 132.322 37.025 134.51 34.2217 136.528C30.8443 136.664 21.8076 136.355 12.5597 130.276C13.3927 128.01 17.3911 117.392 22.6782 107.302C22.7233 107.216 22.7676 107.132 22.8128 107.047C23.2455 106.225 23.6867 105.408 24.1356 104.599C24.2335 104.423 24.3315 104.248 24.4286 104.075C24.7991 103.415 25.1748 102.763 25.5547 102.12C25.7148 101.848 25.875 101.577 26.0342 101.312C26.2412 100.969 26.4491 100.627 26.6586 100.29C26.978 99.7766 27.2966 99.275 27.6126 98.7913C27.7719 98.5474 27.932 98.3094 28.093 98.0697C28.3809 97.6408 28.6671 97.2222 28.9525 96.8182C29.0496 96.6795 29.1476 96.5357 29.2447 96.3987C29.6254 95.8706 30.0019 95.3706 30.3758 94.887C30.4806 94.7509 30.5854 94.6182 30.691 94.4846C31.0837 93.989 31.4747 93.5079 31.8614 93.0628C32.4414 92.3959 33.0283 91.7702 33.6195 91.1761C33.8171 90.9783 34.0156 90.802 34.2132 90.612C34.6093 90.231 35.0045 89.8509 35.4023 89.5C35.6408 89.2911 35.8784 89.1011 36.1169 88.9016C36.4764 88.6011 36.8359 88.2998 37.1953 88.0225C37.4492 87.8264 37.7013 87.6458 37.9543 87.4609C38.2967 87.2109 38.6383 86.9627 38.9781 86.7324C39.2388 86.5552 39.4977 86.39 39.7567 86.2248C40.0846 86.0142 40.4125 85.8088 40.7371 85.6153C40.9994 85.4595 41.2601 85.3114 41.519 85.1667C41.8316 84.9921 42.1417 84.8235 42.4492 84.6634C42.7124 84.5273 42.9739 84.3938 43.2328 84.2671C43.5242 84.1258 43.8104 83.9923 44.0957 83.863C44.3589 83.744 44.6221 83.625 44.8794 83.5155C45.1426 83.405 45.3998 83.3023 45.6553 83.2013C45.9203 83.0977 46.1869 82.9916 46.4441 82.8974C46.6681 82.8161 46.8836 82.7442 47.1017 82.6697C47.3743 82.5764 47.6485 82.4805 47.9092 82.4001C48.0736 82.3487 48.2269 82.3059 48.3862 82.2588C48.6818 82.1724 48.9799 82.0825 49.2576 82.0097C49.2993 81.9986 49.336 81.9909 49.3768 81.9798C50.9118 81.5808 52.1554 81.3814 52.9808 81.2829C53.0063 81.2804 53.0387 81.2752 53.0634 81.2727C53.1946 81.2573 53.2951 81.2487 53.4033 81.2376C53.4663 81.2324 53.5387 81.2247 53.5924 81.2205C54.359 83.2569 58.1086 91.8018 67.4153 93.1176C68.6189 93.2879 69.7756 93.3735 70.854 93.3735C70.917 93.3735 70.9784 93.3735 71.0405 93.3727C71.3685 93.3701 71.6317 93.0996 71.6291 92.7709C71.6257 92.4421 71.3608 92.1793 71.0346 92.1793H71.0303C69.9451 92.1819 68.7952 92.1074 67.5814 91.9354C59.3437 90.7712 55.767 83.4513 54.8292 81.1271C56.6614 80.9148 60.997 80.04 61.842 76.4909C61.9059 76.2255 61.9698 75.9319 62.0345 75.6194C62.0405 75.5895 62.0473 75.5552 62.0533 75.5253C62.8309 71.7194 63.6614 64.943 63.9136 62.8218C65.0805 63.0041 65.9656 62.9442 66.0575 62.9374C66.3846 62.9117 66.6291 62.6241 66.6035 62.2953C66.578 61.9666 66.2841 61.7218 65.9647 61.7466C65.94 61.7492 64.8216 61.8211 63.4732 61.5086C63.2705 61.4624 63.0771 61.4076 62.8863 61.3494C62.8139 61.3272 62.7415 61.3066 62.6683 61.2809C62.5499 61.2407 62.4391 61.1945 62.3258 61.15C61.6546 60.8829 60.9851 60.5054 60.4076 59.9532C60.4067 59.9524 60.4059 59.9524 60.4059 59.9515C60.2585 59.8103 60.1197 59.6545 59.9868 59.4918C59.9681 59.4696 59.9476 59.449 59.9297 59.4259C59.8122 59.2761 59.704 59.1118 59.5992 58.9414C59.5745 58.9012 59.5456 58.8635 59.5217 58.8216C59.4008 58.6127 59.29 58.3901 59.1938 58.1504C59.1103 57.945 59.0405 57.7404 58.9834 57.5375C58.9646 57.4716 58.9561 57.4066 58.9408 57.3406C58.9076 57.2045 58.8727 57.0684 58.8514 56.9349C58.8369 56.8399 58.8343 56.7474 58.825 56.6541C58.8147 56.5505 58.7994 56.4469 58.796 56.3451C58.7926 56.2218 58.8028 56.102 58.8088 55.9804C58.813 55.9111 58.8096 55.84 58.8173 55.7724C58.8335 55.6157 58.8633 55.4625 58.8965 55.311C58.9033 55.281 58.9059 55.2494 58.9127 55.2194C59.0464 54.6767 59.2934 54.1673 59.6512 53.7068C60.572 52.5212 62.118 51.8158 63.4195 52.0033C65.3301 52.2918 66.331 53.5236 66.3395 53.5339L66.6206 53.8943L66.8761 53.7847C66.8821 53.8343 66.8872 53.8771 66.8949 53.9302C67.0558 54.865 67.2058 55.6491 67.7279 56.2381C68.3864 56.9794 69.5278 56.857 70.6981 55.4676C71.8685 54.0775 73.5576 52.6222 76.975 51.6369C82.389 50.0747 86.9453 49.5593 90.1361 46.993C90.1361 46.993 92.3959 48.5133 93.2579 52.9175C93.2468 53.224 93.2298 53.5519 93.2136 53.8746C91.6489 52.9244 89.993 53.4868 89.2434 54.0098C88.9742 54.1973 88.907 54.5697 89.0952 54.841C89.2817 55.1115 89.6506 55.1783 89.9214 54.99C89.9904 54.9412 91.6284 53.8335 93.1293 55.3076C92.9078 58.623 92.4393 62.4751 91.4581 65.7289C89.2349 73.1002 84.6378 75.723 81.0594 75.723H81.0193C77.8004 75.7051 74.5218 74.2609 72.0244 71.7622C70.6257 70.3617 69.1155 68.0667 67.9826 65.621C67.8455 65.3231 67.4928 65.1921 67.1938 65.3325C66.8966 65.4704 66.7679 65.8256 66.9059 66.1252C68.0942 68.6907 69.6939 71.1133 71.1862 72.6071C73.6087 75.0322 76.7195 76.5354 79.8669 76.8479C79.682 78.0531 79.6309 79.2259 79.1726 81.1186C77.8983 86.3755 90.0526 94.5309 93.6923 96.1402C94.2119 96.3696 94.8354 96.6213 95.5263 96.8721C97.6489 97.7572 99.0305 98.0808 100.206 98.1895C101.858 98.5123 103.534 98.6655 105.002 98.4917C105.942 99.6824 108.522 103.274 110.674 109.309C111.789 112.438 112.675 115.156 113.376 117.419C111.848 117.495 110.106 117.578 108.108 117.67ZM101.284 123.538L100.932 123.537L100.79 123.876C100.784 123.886 100.262 124.786 97.5893 124.907C94.8857 125.033 94.1822 124.016 94.1805 124.016L94.0152 123.723L69.5193 123.075L71.0866 119.253C72.7007 119.262 78.8873 119.298 83.8669 119.337C93.2725 119.408 97.0263 123.859 97.0629 123.905C97.1992 124.071 97.4164 124.151 97.6294 124.111C97.8415 124.072 98.0169 123.919 98.0859 123.714C98.1473 123.532 99.6873 119.253 108.163 118.863C116.141 118.495 120.26 118.25 121.459 118.175L123.548 121.992L101.284 123.538ZM106.442 132.918C106.217 133.009 105.986 133.145 105.786 133.347C105.525 133.611 105.225 134.092 105.27 134.881C105.318 135.715 106.133 136.671 106.741 137.272C106.598 137.416 106.468 137.599 106.376 137.831C106.101 138.527 106.295 139.386 106.95 140.385C107.136 140.67 107.617 141.381 114.67 145.146L113.344 147.619C113.324 147.658 113.204 147.753 112.999 147.776L92.3312 149.644L97.2886 136.511C97.4053 136.203 97.2511 135.858 96.9436 135.742C96.6404 135.625 96.2954 135.78 96.1787 136.089L90.7886 150.369C90.3712 150.852 89.3618 151.689 87.378 151.645C85.3805 151.596 84.5389 151.066 84.2391 150.799L85.5935 147.233C85.7102 146.925 85.5568 146.58 85.2502 146.463C84.9452 146.345 84.6003 146.5 84.4836 146.808L83.1505 150.317L55.6094 150.586C55.6009 150.587 55.5915 150.586 55.583 150.585L68.0882 124.372C68.1129 124.331 68.2824 124.235 68.5005 124.243L92.8099 124.885L87.5909 138.625C87.4742 138.933 87.6275 139.278 87.9342 139.396C88.004 139.423 88.0747 139.435 88.1463 139.435C88.3848 139.435 88.6105 139.288 88.7008 139.05L93.9095 125.337C94.5612 125.759 95.7034 126.185 97.643 126.1C98.7137 126.051 99.5075 125.88 100.112 125.666L99.5084 127.266C99.3917 127.574 99.5459 127.919 99.8525 128.036C99.9215 128.062 99.9931 128.074 100.063 128.074C100.303 128.074 100.528 127.928 100.618 127.689L101.745 124.703L126.556 122.98L122.02 131.44C119.802 130.825 115.908 130.246 110.389 129.713L110.037 129.679C107.634 129.445 107.061 129.389 106.477 130.327C105.902 131.249 106.088 132.209 106.442 132.918ZM101.616 161.703H35.5463C39.1273 159.018 43.3965 154.949 48.2849 148.782L49.0055 147.874C50.9451 145.433 53.6018 142.088 55.2092 139.817C55.3983 139.548 55.3361 139.175 55.0686 138.984C54.8003 138.792 54.4306 138.855 54.2407 139.125C52.6529 141.369 50.0081 144.698 48.0771 147.13L47.3564 148.038C35.8828 162.515 27.9066 165.073 25.0096 165.502C22.3639 165.898 14.1773 164.587 11.4533 153.803C10.0095 148.088 11.0086 142.363 12.1015 138.568C12.1926 138.25 12.0112 137.92 11.6969 137.827C11.3792 137.736 11.0521 137.919 10.9609 138.235C9.8272 142.173 8.79312 148.122 10.3017 154.097C11.1109 157.3 12.3843 159.719 13.8605 161.544C6.72241 160.594 1.18829 154.468 1.18829 147.04V59.5954C1.18829 51.5102 7.73349 44.9325 15.7795 44.9325H55.2373C53.2185 47.6829 50.4476 50.2493 45.8249 51.0882C36.5489 52.772 31.4441 55.3837 30.3853 64.1555C29.8759 68.374 30.0463 72.245 24.6868 73.767C20.1084 75.0673 13.1526 76.3736 8.0248 81.7298C1.7113 88.3255 1.61845 101.068 10.2327 107.275C14.2276 110.154 17.2983 110.982 19.4593 111.056C14.6433 120.968 11.3366 130.156 11.2812 130.311C11.1901 130.569 11.2838 130.856 11.5095 131.008C12.2923 131.536 13.0717 132.01 13.8468 132.462C13.8477 132.461 13.8536 132.449 13.8536 132.449C13.8536 132.449 13.9703 132.524 14.1347 132.627C15.9448 133.658 17.7268 134.498 19.4423 135.163C19.4619 135.169 19.4814 135.178 19.501 135.184C25.6791 137.066 29.9534 137.59 31.6425 137.733C31.9449 137.745 32.2328 137.753 32.5097 137.757C27.881 141.076 24.1936 143.667 24.1033 143.73C23.835 143.919 23.7694 144.292 23.9568 144.562C24.0726 144.728 24.2566 144.817 24.4449 144.817C24.5616 144.817 24.68 144.782 24.7847 144.709C25.4065 144.271 35.571 137.127 43.3258 131.365C43.4765 131.327 43.6017 131.239 43.6844 131.098C47.181 128.494 50.141 126.201 51.4306 124.988C55.4988 121.159 57.3156 119.908 61.7331 120.891C63.8557 121.363 66.2859 122.167 68.3072 122.897L68.2322 123.08C67.6692 123.152 67.2237 123.423 67.0184 123.854L66.7953 124.32L60.7475 123.805C60.429 123.772 60.1342 124.021 60.1061 124.35C60.0789 124.678 60.3208 124.967 60.6479 124.994L66.2467 125.471L64.9724 128.143C64.9673 128.142 64.9631 128.139 64.9588 128.139H57.8012C57.4724 128.139 57.2066 128.407 57.2066 128.737C57.2066 129.067 57.4724 129.334 57.8012 129.334H64.4043L62.6998 132.905C62.607 132.89 62.5116 132.889 62.4153 132.92C56.773 134.81 51.6802 134.079 51.6291 134.073C51.3113 134.031 51.003 134.249 50.9544 134.575C50.9059 134.901 51.1291 135.204 51.4527 135.253C51.5481 135.268 52.5967 135.42 54.2432 135.42C56.1981 135.42 58.9996 135.196 62.044 134.281L54.4093 150.284C54.2654 150.587 54.2875 150.925 54.4689 151.212C54.6947 151.566 55.1308 151.777 55.6214 151.78L83.269 151.509C83.6992 151.983 84.7963 152.774 87.3482 152.838C87.4164 152.84 87.4837 152.841 87.5501 152.841C89.5876 152.841 90.7972 152.053 91.4513 151.406C91.597 151.345 91.7256 151.249 91.7869 151.089L91.8287 150.977C91.8517 150.946 91.8832 150.91 91.9028 150.882L113.12 148.964C113.691 148.897 114.167 148.605 114.391 148.183L115.72 145.703C116.303 146.012 116.92 146.334 117.585 146.681C117.877 146.832 118.234 146.717 118.386 146.424C118.536 146.131 118.423 145.771 118.13 145.62C109.259 141.012 108.089 139.944 107.942 139.728C107.534 139.107 107.365 138.578 107.478 138.278C107.53 138.139 107.644 138.055 107.735 138.005L118.957 142.109C119.024 142.134 119.093 142.145 119.159 142.145C119.402 142.145 119.63 141.995 119.718 141.753C119.831 141.443 119.671 141.101 119.363 140.988L108.032 136.844C107.388 136.287 106.485 135.304 106.456 134.81C106.432 134.392 106.578 134.24 106.627 134.191C106.834 133.978 107.208 133.93 107.373 133.93L119.831 137.161C119.88 137.174 119.93 137.18 119.98 137.18C120.243 137.18 120.485 137.001 120.555 136.732C120.636 136.413 120.445 136.088 120.127 136.005L107.775 132.801C107.544 132.515 107.011 131.719 107.484 130.96C107.657 130.683 107.68 130.648 109.923 130.867L110.275 130.901C119.668 131.808 122.325 132.664 123.073 133.094C124.91 134.15 125.561 136.741 125.474 142.653C125.442 144.771 125.05 147.362 123.355 147.685C123.033 147.747 122.821 148.058 122.883 148.382C122.897 148.459 122.927 148.528 122.966 148.591C121.891 150.923 120.101 154.537 117.919 157.89C117.107 159.14 116.23 160.461 115.308 161.703H101.616ZM119.241 43.7383H100.997C98.4539 39.8374 93.7699 39.3289 93.7699 39.3289C93.7699 39.3289 89.4462 28.1765 77.0117 28.6003C67.3225 28.9298 62.8915 33.0474 58.6768 39.5078C57.8701 40.7439 57.0567 42.236 56.0694 43.7383H15.7795C7.07842 43.7383 0 50.8519 0 59.5954V147.04C0 155.539 6.69511 162.479 15.0623 162.86C18.2233 165.928 21.9508 166.749 24.1671 166.749C24.5556 166.749 24.898 166.724 25.1816 166.682C27.0624 166.405 29.9994 165.501 33.8733 162.897H91.8798H115.901H119.241C127.941 162.897 135.021 155.783 135.021 147.04V59.5954C135.021 50.8519 127.941 43.7383 119.241 43.7383Z" fill="#393F49"/>
<path fill-rule="evenodd" clip-rule="evenodd" d="M76.8748 90.8494C76.0878 91.28 75.1926 91.6104 74.213 91.8321C73.8936 91.904 73.6925 92.2233 73.7649 92.5452C73.8263 92.8234 74.0716 93.0109 74.3433 93.0109C74.3859 93.0109 74.4302 93.0066 74.4745 92.9963C75.5605 92.7515 76.5588 92.3817 77.443 91.8972C77.7309 91.7405 77.8374 91.3776 77.6806 91.0882C77.5231 90.7989 77.1636 90.691 76.8748 90.8494Z" fill="#393F49"/>
<path fill-rule="evenodd" clip-rule="evenodd" d="M81.0798 59.2749C80.6189 59.8776 80.5678 60.7995 80.9665 61.3345C81.3651 61.8696 82.0619 61.8148 82.5227 61.2121C82.9835 60.6103 83.0338 59.6875 82.636 59.1525C82.2374 58.6175 81.5414 58.6723 81.0798 59.2749Z" fill="#393F49"/>
<path fill-rule="evenodd" clip-rule="evenodd" d="M91.1711 61.7511C91.5808 61.1227 91.5961 60.2008 91.2043 59.6915C90.8125 59.183 90.1617 59.2797 89.7511 59.908C89.3414 60.5364 89.3261 61.4583 89.7179 61.9668C90.1106 62.4761 90.7605 62.3794 91.1711 61.7511Z" fill="#393F49"/>
<path fill-rule="evenodd" clip-rule="evenodd" d="M84.4133 68.8601L86.0368 69.0185C86.0896 69.0236 86.1407 69.0271 86.191 69.0271C86.5675 69.0271 86.9031 68.867 87.1262 68.5768C87.3801 68.2455 87.4431 67.7918 87.3136 67.4691L86.9312 65.8512C86.6441 63.9722 87.0334 62.3637 87.0377 62.3475C87.1169 62.0282 86.9235 61.7037 86.6058 61.6241C86.2855 61.5428 85.9661 61.7363 85.886 62.0556C85.8673 62.1309 85.432 63.9046 85.7659 66.0789L86.1603 67.8312L84.5266 67.672C84.2046 67.6429 83.9107 67.88 83.8792 68.2096C83.8468 68.5366 84.087 68.8285 84.4133 68.8601Z" fill="#393F49"/>
<path fill-rule="evenodd" clip-rule="evenodd" d="M77.9957 72.5434C78.1056 72.5434 78.2172 72.5126 78.3168 72.4475C78.5928 72.2695 78.672 71.8997 78.494 71.6232C77.9463 70.7706 77.6661 70.0498 77.534 69.4728C78.5153 70.6208 80.2683 71.8671 83.1687 71.6411C83.4957 71.6146 83.7402 71.327 83.7138 70.9983C83.6883 70.6704 83.3995 70.423 83.075 70.4513C78.8432 70.7902 77.638 67.4791 77.5894 67.3413C77.5119 67.1153 77.3066 66.9569 77.069 66.9407C76.8279 66.9347 76.6073 67.052 76.4991 67.2651C76.4591 67.3439 75.5434 69.2271 77.4966 72.2703C77.6098 72.4467 77.8006 72.5434 77.9957 72.5434Z" fill="#393F49"/>
<path fill-rule="evenodd" clip-rule="evenodd" d="M78.2344 55.506C78.4005 55.506 78.5658 55.4358 78.6833 55.2988C78.748 55.2244 80.2753 53.4935 82.7285 54.8563C83.0164 55.0146 83.3775 54.9093 83.536 54.6217C83.6944 54.3332 83.5896 53.9703 83.3026 53.8102C80.6739 52.3515 78.5436 53.6356 77.7847 54.519C77.57 54.7681 77.5981 55.1447 77.846 55.3605C77.9584 55.4581 78.0964 55.506 78.2344 55.506Z" fill="#393F49"/>
<path fill-rule="evenodd" clip-rule="evenodd" d="M63.9078 53.7484C63.1412 53.6808 62.3839 53.9153 61.7894 54.4127C61.194 54.9117 60.8286 55.6137 60.7587 56.3884C60.6889 57.164 60.924 57.9198 61.4197 58.5182C61.9163 59.1157 62.6139 59.4829 63.3856 59.554C63.4035 59.5557 63.4214 59.5566 63.4402 59.5566C63.7434 59.5566 64.0032 59.3229 64.0313 59.013C64.0603 58.6851 63.8192 58.3941 63.493 58.365C63.0373 58.323 62.625 58.1056 62.332 57.7538C62.039 57.4002 61.901 56.9542 61.9419 56.4962C61.9827 56.0383 62.1991 55.624 62.55 55.3295C62.9018 55.0359 63.3473 54.8989 63.8013 54.9374C64.2562 54.9785 64.6693 55.1959 64.9615 55.5495C65.171 55.802 65.5441 55.8371 65.7979 55.6248C66.0501 55.4134 66.0841 55.0376 65.8737 54.7842C65.378 54.1867 64.6795 53.8194 63.9078 53.7484Z" fill="#393F49"/>
<path fill-rule="evenodd" clip-rule="evenodd" d="M212.252 212.429L212.267 212.315H211.069L211.055 212.429H212.252Z" fill="#393F49"/>
<path fill-rule="evenodd" clip-rule="evenodd" d="M229.789 112.418C230.354 112.514 230.923 111.928 231.06 111.11C231.196 110.292 230.85 109.551 230.285 109.456C229.72 109.36 229.151 109.946 229.014 110.764C228.878 111.582 229.224 112.323 229.789 112.418Z" fill="#393F49"/>
<path fill-rule="evenodd" clip-rule="evenodd" d="M241.35 120.848C241.121 120.808 240.886 120.909 240.755 121.104C240.675 121.224 238.749 124.026 234.884 122.703C234.573 122.596 234.235 122.763 234.129 123.075C234.024 123.387 234.19 123.726 234.5 123.833C237.503 124.862 239.593 123.782 240.732 122.834C240.62 123.899 240.051 125.384 237.929 126.235C237.624 126.357 237.476 126.705 237.598 127.01C237.691 127.244 237.914 127.386 238.15 127.386C238.223 127.386 238.298 127.372 238.369 127.343C242.848 125.546 241.836 121.33 241.825 121.288C241.767 121.06 241.581 120.887 241.35 120.848Z" fill="#393F49"/>
<path fill-rule="evenodd" clip-rule="evenodd" d="M241.63 105.159C241.32 105.265 241.153 105.604 241.259 105.915C241.365 106.228 241.703 106.399 242.013 106.288C244.538 105.426 245.724 107.311 245.777 107.397C245.888 107.584 246.084 107.687 246.286 107.687C246.389 107.687 246.494 107.659 246.589 107.603C246.871 107.434 246.964 107.068 246.796 106.784C246.218 105.808 244.396 104.213 241.63 105.159Z" fill="#393F49"/>
<path fill-rule="evenodd" clip-rule="evenodd" d="M228.866 104.036C228.602 104.231 228.545 104.604 228.738 104.871C228.931 105.136 229.302 105.194 229.568 104.999C231.19 103.807 232.559 105.023 232.711 105.166C232.825 105.277 232.973 105.332 233.121 105.332C233.276 105.332 233.431 105.27 233.548 105.15C233.776 104.912 233.769 104.534 233.533 104.305C232.783 103.578 230.843 102.583 228.866 104.036Z" fill="#393F49"/>
<path fill-rule="evenodd" clip-rule="evenodd" d="M253.336 120.571C253.782 120.839 254.28 120.977 254.787 120.977C255.017 120.977 255.248 120.948 255.478 120.891C256.211 120.707 256.829 120.246 257.217 119.595C257.606 118.944 257.72 118.18 257.536 117.444C257.456 117.124 257.133 116.928 256.816 117.009C256.497 117.09 256.304 117.413 256.384 117.734C256.49 118.161 256.424 118.604 256.199 118.982C255.973 119.359 255.615 119.625 255.19 119.732C254.765 119.837 254.323 119.773 253.948 119.547C253.666 119.377 253.302 119.47 253.133 119.751C252.964 120.035 253.055 120.401 253.336 120.571Z" fill="#393F49"/>
<path fill-rule="evenodd" clip-rule="evenodd" d="M234.444 145.494C236.37 146.745 238.922 147.372 242.071 147.372C244.341 147.372 246.919 147.046 249.797 146.396C250.117 146.323 250.319 146.004 250.247 145.682C250.174 145.361 249.857 145.155 249.537 145.231C241.42 147.066 237.223 145.857 235.133 144.52C233.059 143.194 232.671 141.556 232.651 141.471C232.585 141.148 232.273 140.942 231.951 141.009C231.63 141.075 231.423 141.391 231.49 141.713C231.507 141.801 231.956 143.879 234.444 145.494Z" fill="#393F49"/>
<path fill-rule="evenodd" clip-rule="evenodd" d="M196.177 190.665C196.571 190.215 197.17 189.973 197.882 189.973C197.976 189.973 198.072 189.979 198.169 189.987C199.075 190.065 200.008 190.491 200.797 191.19C201.587 191.887 202.127 192.763 202.319 193.656C202.497 194.481 202.351 195.217 201.903 195.728C201.457 196.238 200.743 196.472 199.911 196.407C199.006 196.329 198.073 195.901 197.283 195.205C196.495 194.506 195.953 193.63 195.761 192.738C195.582 191.911 195.731 191.175 196.177 190.665ZM196.499 196.1C197.478 196.965 198.653 197.496 199.81 197.596C199.943 197.607 200.074 197.613 200.202 197.613C201.26 197.613 202.17 197.23 202.796 196.515C203.497 195.715 203.74 194.609 203.481 193.404C203.235 192.263 202.56 191.159 201.582 190.294C200.604 189.428 199.427 188.897 198.271 188.797C197.048 188.689 195.988 189.075 195.285 189.878C194.583 190.678 194.34 191.784 194.6 192.991C194.846 194.13 195.52 195.235 196.499 196.1Z" fill="#393F49"/>
<path fill-rule="evenodd" clip-rule="evenodd" d="M291.192 200.325C291.197 199.996 290.936 199.725 290.607 199.719C282.354 199.584 276.117 202.198 275.856 202.309C275.555 202.439 275.414 202.788 275.542 203.091C275.637 203.319 275.858 203.455 276.089 203.455C276.166 203.455 276.245 203.44 276.32 203.408C276.383 203.38 282.573 200.769 290.589 200.913C290.914 200.878 291.187 200.654 291.192 200.325Z" fill="#393F49"/>
<path fill-rule="evenodd" clip-rule="evenodd" d="M309.812 210.122C309.812 218.207 303.267 224.785 295.221 224.785H280.948L280.151 221.966C281.197 221.879 282.119 221.776 282.864 221.652C289.798 220.501 294.97 218.219 298.236 214.869C301.717 211.299 303.001 206.571 302.051 200.815C300.463 191.193 298.022 186.433 297.204 185.043C298.604 183.934 299.778 182.867 300.566 181.897L300.881 181.51L300.557 181.131C299.925 180.389 298.118 177.837 295.618 174.306C291.654 168.705 285.663 160.242 278.972 151.386C271.466 141.453 260.625 138.579 254.812 137.74L254.489 124.247C254.489 124.205 254.473 124.168 254.465 124.128C256.24 124.134 258.42 123.635 259.966 121.565C261.223 119.884 261.489 117.967 260.713 116.167C260.321 115.257 259.668 114.448 258.913 113.856C259.028 113.718 259.239 113.344 259.378 112.993C259.378 112.993 260.518 110.975 261.55 108.015H295.221C303.267 108.015 309.812 114.592 309.812 122.678V210.122ZM177.168 210.122V200.244L183.669 212.677C183.597 212.845 183.556 213.029 183.556 213.223V214.908C183.556 215.674 184.176 216.298 184.939 216.298H208.641C209.122 216.642 209.719 217.059 210.4 217.515L209.465 224.785H191.759C183.714 224.785 177.168 218.207 177.168 210.122ZM235.937 213.027H260.54C260.647 213.027 260.734 213.114 260.734 213.223V214.908C260.734 215.017 260.647 215.104 260.54 215.104H241.137C239.953 214.513 238.18 213.731 235.937 213.027ZM184.939 215.104C184.831 215.104 184.744 215.017 184.744 214.908V213.223C184.744 213.114 184.831 213.027 184.939 213.027H219.317C219.354 213.132 219.395 213.237 219.451 213.34C219.769 213.936 220.453 214.529 221.355 215.104H184.939ZM240.177 220.638C240.118 220.638 240.06 220.644 240.005 220.656C239.879 220.689 227.614 223.848 221.531 221.944C217.694 220.744 213.436 218.121 210.744 216.298H223.575C228.025 218.371 234.443 219.999 235.447 220.246C235.494 220.257 235.542 220.263 235.589 220.263C235.855 220.263 236.099 220.082 236.166 219.809C236.243 219.489 236.049 219.165 235.73 219.087C231.93 218.148 221.783 215.184 220.497 212.776C220.366 212.532 220.394 212.386 220.426 212.296C220.634 211.713 222.183 211.403 225.919 212.27C227.045 212.532 228.257 212.696 229.43 212.855C230.613 213.015 231.836 213.182 232.964 213.447C238.54 214.755 242.143 217.01 242.179 217.033C242.457 217.207 242.823 217.124 242.999 216.845C243.106 216.674 243.105 216.472 243.033 216.298H260.54C261.302 216.298 261.922 215.674 261.922 214.908V213.223C261.922 212.457 261.302 211.833 260.54 211.833H248.573L274.582 203.714C274.745 203.663 274.879 203.543 274.948 203.387C275.018 203.23 275.017 203.052 274.946 202.896L273.302 199.29C274.93 198.463 280.148 195.776 284.915 192.959C290.169 189.855 294.749 186.797 296.254 185.78C297.076 187.239 299.383 191.944 300.879 201.01C301.764 206.37 300.589 210.751 297.388 214.034C294.302 217.199 289.35 219.366 282.67 220.475C273.941 221.921 240.513 220.65 240.177 220.638ZM210.666 224.757L211.504 218.24C214.201 219.976 217.811 222.031 221.178 223.085C222.72 223.567 224.596 223.752 226.566 223.752C232.516 223.752 239.308 222.067 240.218 221.834C242.247 221.911 267.145 222.837 278.941 222.057L279.704 224.757H210.666ZM237.495 114.228C237.45 112.956 237.901 111.744 238.763 110.814C239.625 109.883 240.797 109.346 242.061 109.3C242.119 109.299 242.176 109.298 242.234 109.298C243.435 109.298 244.574 109.747 245.458 110.574C246.384 111.441 246.919 112.618 246.964 113.889C247.008 115.16 246.558 116.372 245.695 117.302C244.833 118.233 243.661 118.771 242.397 118.816C241.133 118.855 239.927 118.408 239 117.542C238.074 116.675 237.54 115.498 237.495 114.228ZM165.662 174.556C165.858 174.229 166.202 174.036 166.582 174.036H214.557C215.506 174.036 216.37 174.561 216.812 175.405L230.077 200.771C230.229 201.063 230.587 201.175 230.878 201.022C231.168 200.87 231.28 200.509 231.127 200.217L217.864 174.85C217.679 174.497 217.441 174.187 217.167 173.919C218.941 161.708 220.601 154.346 220.623 154.247C220.696 153.925 220.497 153.606 220.177 153.532C219.858 153.457 219.539 153.659 219.465 153.981C219.443 154.078 217.826 161.251 216.077 173.168C215.607 172.957 215.091 172.842 214.557 172.842H203.143C202.365 171.184 201.816 169.894 201.583 169.331C203.129 167.254 213.127 153.879 216.523 150.636C223.807 143.683 229.827 140.692 232.747 139.531C232.891 139.063 233.036 138.565 233.16 138.092C230.549 139.003 223.975 141.876 215.705 149.772C211.965 153.342 200.899 168.255 200.429 168.889L200.231 169.156L200.354 169.466C200.391 169.561 200.542 169.933 200.789 170.513L200.259 171.001C199.498 170.21 197.546 168.041 193.948 163.22C188.933 156.5 184.888 151.221 183.876 149.999C183.255 149.25 183.281 148.792 183.548 146.158C183.624 145.416 183.715 144.519 183.806 143.422C184.217 138.468 184.422 135.579 184.422 135.579C184.44 135.33 184.301 135.096 184.076 134.992C183.174 134.582 182.276 134.584 181.408 135.004C179.191 136.073 177.767 139.719 177.168 141.573V122.678C177.168 114.592 183.714 108.015 191.759 108.015H223.671C222.927 109.049 222.524 110.283 222.571 111.58C222.625 113.121 223.272 114.548 224.395 115.599C224.818 115.994 225.3 116.297 225.805 116.545C225.748 117.719 225.726 118.869 225.764 119.948C226.016 127.152 230.121 130.781 233.879 131.774C235.172 132.117 236.401 132.29 237.602 132.29C239.739 132.29 241.784 131.742 243.936 130.625C246.03 129.538 248.183 127.8 249.695 125.977C249.906 125.723 249.871 125.347 249.62 125.136C249.367 124.925 248.993 124.96 248.783 125.212C247.389 126.893 245.322 128.561 243.39 129.564C240.31 131.165 237.47 131.489 234.182 130.621C233.026 130.315 227.246 128.362 226.951 119.906C226.918 118.977 226.93 117.988 226.975 116.972C227.407 117.076 227.849 117.147 228.303 117.147C228.373 117.147 228.443 117.146 228.512 117.142C229.646 117.102 230.716 116.731 231.62 116.087C231.428 116.454 231.208 116.838 230.949 117.246C229.563 119.421 229.578 119.487 229.64 119.759C229.689 119.977 229.855 120.149 230.07 120.204L233.138 121.006C233.188 121.018 233.238 121.024 233.288 121.024C233.551 121.024 233.792 120.846 233.861 120.578C233.944 120.258 233.754 119.933 233.436 119.85L231.107 119.241C231.281 118.952 231.546 118.522 231.948 117.89C234.118 114.485 234.024 112.248 234.02 112.154C234.017 112.116 234.002 112.083 233.993 112.047C234.027 111.758 234.058 111.468 234.047 111.172C234.035 110.815 233.983 110.466 233.908 110.125C234.574 109.886 235.983 109.631 237.112 111.081C236.557 112.04 236.268 113.133 236.309 114.269C236.364 115.858 237.033 117.331 238.19 118.415C239.296 119.45 240.721 120.013 242.223 120.013C242.296 120.013 242.367 120.011 242.439 120.008C244.021 119.953 245.486 119.281 246.564 118.117C247.643 116.952 248.206 115.436 248.15 113.848C248.094 112.258 247.425 110.786 246.267 109.701C245.109 108.616 243.592 108.037 242.019 108.108C240.437 108.164 238.972 108.835 237.894 110C237.87 110.025 237.854 110.057 237.83 110.084C236.441 108.531 234.666 108.598 233.539 108.989C233.23 108.305 232.787 107.681 232.223 107.153C231.16 106.158 229.786 105.624 228.349 105.623C228.75 103.371 229.108 101.701 229.217 101.212C229.418 100.99 229.658 100.79 229.892 100.588C232.56 100.39 234.332 99.0339 236.112 98.9355C238.318 98.8139 242.27 101.554 242.27 101.554C242.27 101.554 244.119 101.308 243.179 99.3712C242.241 97.4331 247.428 101.938 248.491 103.561C251.626 108.35 252.077 113.661 252.132 115.947C252.135 116.034 252.341 115.711 252.652 115.275L253.438 114.8C253.454 114.791 254.976 113.88 256.591 114.065C257.569 114.173 258.966 115.114 259.622 116.64C260.046 117.623 260.285 119.152 259.017 120.849C256.562 124.135 251.998 122.59 251.804 122.522C251.498 122.416 251.156 122.577 251.048 122.888C250.94 123.199 251.103 123.539 251.412 123.647C251.494 123.676 252.26 123.936 253.339 124.063C253.316 124.129 253.299 124.2 253.301 124.276L253.742 142.704C253.751 143.029 254.015 143.286 254.337 143.286H254.351C254.678 143.279 254.938 143.005 254.931 142.675L254.841 138.946C260.493 139.79 270.848 142.608 278.025 152.108C284.705 160.949 290.691 169.403 294.651 174.998C296.915 178.197 298.514 180.454 299.334 181.508C298.441 182.511 297.153 183.617 295.622 184.767C294.179 185.745 289.594 188.809 284.312 191.931C283.852 192.203 283.386 192.474 282.921 192.742C277.439 195.806 272.789 198.099 272.689 198.148L272.242 198.367L272.244 198.37C268.225 200.369 263.942 200.852 262.612 200.957C262.096 199.584 260.299 194.531 257.535 183.937C254.849 173.639 254.218 166.011 254.213 165.935C254.186 165.607 253.911 165.363 253.573 165.388C253.247 165.415 253.002 165.702 253.028 166.031C253.034 166.107 253.672 173.832 256.385 184.24C259.701 196.949 261.587 201.615 261.667 201.808L261.823 202.192L262.236 202.178C262.455 202.17 267.336 201.97 272.191 199.722L273.334 202.224L273.497 202.803L244.853 211.745C244.799 211.761 244.76 211.802 244.713 211.833H237.202L234.217 206.126C234.065 205.835 233.706 205.72 233.416 205.875C233.125 206.028 233.013 206.389 233.166 206.681L235.8 211.717H229.906C229.8 211.704 229.694 211.687 229.589 211.672C228.39 211.509 227.258 211.355 226.187 211.107C222.208 210.184 220.054 210.386 219.404 211.717H184.509L165.631 175.615C165.455 175.279 165.467 174.882 165.662 174.556ZM174.103 162.693C174.053 162.593 173.977 162.509 173.881 162.451C173.819 162.413 167.564 158.525 163.579 153.317C159.436 147.905 159.229 146.683 159.385 145.738C159.44 145.403 159.524 145.257 159.523 145.201C162.484 146.96 165.536 150.142 166.263 150.925C165.762 152.032 165.564 152.79 165.543 152.874C165.465 153.193 165.66 153.517 165.978 153.596C166.025 153.608 166.074 153.613 166.121 153.613C166.387 153.613 166.63 153.431 166.697 153.159C166.7 153.144 167.34 151.073 168.599 149.298C170.232 146.995 172.666 144.796 173.628 144.169C173.903 143.99 173.981 143.62 173.802 143.343C173.624 143.067 173.256 142.988 172.98 143.168C172.642 143.388 172.323 143.617 172.013 143.847C171.991 143.812 171.976 143.774 171.946 143.744C171.946 143.744 170.536 142.276 169.243 140.968C166.231 137.924 163.721 135.59 163.352 135.247C163.262 135.078 163.114 134.703 163.214 134.381C163.289 134.139 163.512 133.934 163.873 133.774C164.984 133.276 170.725 137.289 173.904 140.128C175.195 141.282 176.154 142.299 176.629 142.826C176.062 143.583 175.145 145.328 175.503 148.511C175.803 151.172 177.793 153.696 177.878 153.802C177.996 153.95 178.168 154.026 178.341 154.026C178.472 154.026 178.602 153.983 178.712 153.895C178.968 153.69 179.009 153.314 178.806 153.057C178.787 153.033 176.944 150.69 176.684 148.376C176.268 144.688 177.729 143.339 177.804 143.274C177.811 143.268 177.813 143.259 177.819 143.253C177.835 143.239 177.843 143.221 177.857 143.206C177.91 143.145 177.949 143.078 177.973 143.003C177.978 142.989 177.991 142.98 177.995 142.966C178.397 141.384 179.885 137.063 181.922 136.08C182.344 135.877 182.766 135.83 183.205 135.944C183.133 136.933 182.939 139.518 182.623 143.322C182.532 144.411 182.442 145.301 182.367 146.037C182.095 148.708 182.004 149.607 182.963 150.764C183.967 151.973 187.994 157.231 192.997 163.936C197.901 170.506 199.772 172.202 199.849 172.272C200.076 172.474 200.419 172.471 200.645 172.266L201.292 171.67C201.451 172.028 201.627 172.419 201.822 172.842H179.496C176.481 167.459 174.129 162.747 174.103 162.693ZM158.228 139.664C158.357 139.403 158.509 139.328 158.611 139.293C158.936 139.189 159.355 139.336 159.519 139.413C159.78 139.611 162.264 141.519 164.415 143.862C165.76 145.325 167.348 146.954 168.13 147.748C167.602 148.468 167.176 149.157 166.832 149.79C165.734 148.635 162.91 145.811 160.073 144.141C159.35 143.32 157.604 140.919 158.228 139.664ZM160.688 135.708C161.536 135.223 162.438 136.025 162.473 136.057C162.473 136.057 162.473 136.057 162.474 136.057C162.474 136.057 162.474 136.057 162.474 136.058C162.501 136.082 165.177 138.553 168.4 141.811C169.688 143.112 171.092 144.572 171.093 144.574C171.093 144.575 171.095 144.575 171.096 144.576C170.234 145.306 169.501 146.061 168.875 146.806C168.07 145.988 166.569 144.447 165.289 143.053C163.25 140.832 160.965 139.023 160.342 138.542C160.142 137.807 159.883 136.17 160.688 135.708ZM224.976 108.256C225.064 108.161 225.174 108.1 225.269 108.015H226.74C226.389 110.256 226.059 112.766 225.881 115.245C225.643 115.093 225.415 114.922 225.205 114.725C224.314 113.891 223.8 112.76 223.757 111.538C223.714 110.316 224.147 109.15 224.976 108.256ZM228.144 106.802C228.146 106.802 228.146 106.802 228.148 106.801C228.203 106.799 228.258 106.798 228.314 106.798C229.468 106.798 230.563 107.23 231.413 108.026C232.304 108.86 232.817 109.992 232.861 111.214C232.904 112.435 232.471 113.601 231.642 114.496C230.812 115.39 229.686 115.906 228.47 115.95C227.978 115.968 227.5 115.887 227.039 115.752C227.241 112.676 227.698 109.45 228.144 106.802ZM295.221 106.821H261.939C263.105 103.041 263.893 98.13 262.213 93.8507C258.767 85.0729 252.641 84.8401 249.203 84.8795C245.728 84.918 242.28 86.1686 242.28 86.1686C242.28 86.1686 239.348 83.0613 234.92 83.7401C230.017 84.4917 228.59 89.0055 225.867 90.3983C223.143 91.7919 221.466 91.6027 222.472 94.0467C223.478 96.4907 225.016 100.062 227.816 100.514C227.957 100.536 228.079 100.532 228.215 100.548L228.125 100.653L228.092 100.798C228.048 100.989 227.604 102.965 227.115 105.741C226.266 105.921 225.473 106.287 224.787 106.821H191.759C183.059 106.821 175.98 113.935 175.98 122.678V140.442C175.598 140.068 175.171 139.663 174.692 139.236C174.605 139.158 165.932 131.56 163.395 132.682C162.529 133.065 162.2 133.632 162.076 134.039C162.032 134.183 162.008 134.326 161.998 134.464C161.45 134.302 160.782 134.278 160.098 134.672C158.859 135.384 158.867 137.002 159.03 138.069C158.786 138.053 158.517 138.071 158.25 138.156C157.782 138.309 157.407 138.645 157.165 139.13C156.299 140.872 157.84 143.238 158.721 144.374C158.469 144.638 158.298 145.029 158.213 145.542C157.962 147.059 158.56 148.719 162.637 154.045C166.465 159.046 172.116 162.744 173.116 163.377C173.526 164.194 175.558 168.212 178.134 172.842H166.581C165.783 172.842 165.059 173.253 164.646 173.939C164.233 174.627 164.208 175.46 164.58 176.171L175.98 197.973V210.122C175.98 218.866 183.059 225.979 191.759 225.979H295.221C303.921 225.979 311 218.866 311 210.122V122.678C311 113.935 303.921 106.821 295.221 106.821Z" fill="#393F49"/>
</mask>
<g mask="url(#mask3)">
<rect x="-25.8414" y="-44.9567" width="365.882" height="367.022" rx="32.8145" fill="#475574"/>
<rect x="-9" y="-27" width="334" height="281" rx="80" fill="#475574"/>
</g>
<path fill-rule="evenodd" clip-rule="evenodd" d="M14.7017 82.9749C14.6455 82.9424 14.6403 82.8748 14.7137 82.832C14.6958 82.8893 14.8816 82.8115 15.0129 82.7858C14.9251 82.8389 14.8168 82.9047 14.7017 82.9749ZM14.1441 83.3658C14.1765 83.3376 14.22 83.2957 14.3053 83.2366L14.307 83.2392C14.2354 83.2863 14.1791 83.3342 14.1441 83.3658ZM12.8553 82.9561V82.9826C12.8459 82.9492 12.8399 82.9158 12.8476 82.8816C12.9456 82.7764 13.0036 82.773 13.0394 82.7884C12.9908 82.8329 12.9328 82.8859 12.8553 82.9561ZM82.2572 33.6167C82.3748 33.639 82.2836 33.7656 82.1924 33.7724C81.8915 33.8366 81.8114 33.6338 81.8071 33.5731L82.0185 33.5799C81.8813 33.2009 81.1865 33.4516 80.7807 33.3772L80.9947 33.1607L80.5352 33.2942C80.4551 33.2155 80.4116 33.0684 80.6239 33.0658C80.34 32.8981 80.3468 33.1026 80.1047 32.9417C80.0783 32.9178 80.0936 32.9075 80.1209 32.9007L79.8157 32.9426C79.8805 32.8964 79.7859 32.7638 79.9649 32.8186C79.4423 32.6244 79.0885 32.9032 78.901 32.7159L78.947 32.7022C78.1986 32.7561 78.8618 32.881 78.3009 33.0726L77.9394 32.609L77.8635 32.7878C77.7868 32.7749 77.6359 32.7638 77.6641 32.6919C77.3785 32.8263 77.7126 32.7689 77.5473 32.893C77.1764 32.739 76.5422 33.0033 76.4416 32.7168C76.3188 32.8596 76.7996 32.8117 76.4143 32.9212C76.2779 32.6073 75.9676 33.0222 75.6207 32.9152C75.7059 32.7433 76.0358 32.7903 75.682 32.6868C75.5107 32.9828 75.0163 32.6988 74.7366 32.7946C74.7435 32.8605 74.6804 32.9032 74.5926 32.94C74.6241 32.8656 74.6727 32.8211 74.7366 32.7946C74.7324 32.7629 74.7162 32.7279 74.6829 32.6851C74.6054 32.6937 74.6062 32.8622 74.59 32.9409C74.3863 33.0247 74.0035 33.0641 73.6872 33.1813C73.6958 33.0812 72.7828 33.2805 72.3326 33.3626L72.3335 33.3241C72.3207 33.5662 71.8612 33.6449 71.5697 33.8212C71.5356 33.698 71.5663 33.6099 71.7223 33.5012C71.6191 33.5295 71.5245 33.5791 71.4265 33.6218C71.383 33.7177 71.3063 33.7921 71.1281 33.899L71.1383 33.7159C70.753 33.9076 70.4282 34.2224 69.8997 34.3832C69.9483 34.5321 70.4598 34.5423 70.0276 34.9196C69.9704 34.8571 69.8843 34.7451 69.996 34.639C69.9594 34.6732 69.8801 34.7878 69.7795 34.8067L69.9082 34.5688C69.6678 34.6407 69.8528 34.7365 69.6789 34.8246C69.6252 34.7203 69.5127 34.8263 69.4905 34.7305C69.528 34.6946 69.6627 34.6852 69.7045 34.6056C69.5033 34.7014 69.2365 34.7802 69.1128 34.7502C69.164 34.7973 69.1938 34.8862 69.0625 34.982C68.7037 35.207 68.8622 34.9367 68.6158 35.0146C68.5681 35.13 68.2953 35.2113 68.3942 35.367C68.2962 35.4423 68.2305 35.3892 68.1649 35.3798C68.0353 35.5783 67.3653 36.0291 67.6764 36.024L67.7276 35.9992L67.7045 36.0274C67.2306 36.5698 66.5179 36.9154 66.0678 37.4757L66.0269 37.4347C65.7694 37.7769 65.3901 38.1293 65.2971 38.4433C65.2153 38.5357 65.0252 38.5938 65.0073 38.5074C64.8326 38.7795 64.8573 38.8471 64.4864 39.1396C64.6152 38.8265 64.3458 39.1662 64.6416 38.8385C64.3364 39.1242 64.2 39.1354 64.0406 39.5836C64.0218 39.3698 63.6945 39.7042 63.6058 39.8882L63.8727 39.7299C63.7499 39.9164 63.6169 40.0593 63.4831 40.2047L63.3961 39.9968C62.6715 40.5144 62.7653 41.4563 62.0543 41.724C62.027 41.9875 62.4115 41.416 62.4183 41.6753C62.1592 41.9687 61.6869 42.1218 61.6136 42.2202C61.2035 42.5838 61.5445 42.7951 61.1516 43.2006C61.2504 43.1843 61.4414 43.2433 61.2479 43.6189C60.9964 43.9183 60.7262 43.8319 60.825 43.5984C60.8762 43.5188 60.9205 43.4957 60.9376 43.5128C60.9913 43.3956 61.0663 43.2442 60.9129 43.3237L60.9393 43.4067C60.7662 43.5205 60.4551 43.9602 60.4363 43.79C60.317 44.0689 60.4559 43.9602 60.6136 43.8045C60.2368 44.151 60.1516 44.4384 59.7961 44.8183C59.8754 44.7738 59.9871 44.7609 59.9385 44.8268C59.427 45.3897 59.8532 45.1733 59.5779 45.6036C59.3196 45.7721 59.4312 45.3683 59.2019 45.8328C58.959 46.0399 59.0127 45.773 59.0391 45.6395C58.8729 46.0938 58.4586 46.2845 58.2719 46.4702L58.3767 46.2452C58.3136 46.3795 58.2395 46.4727 58.1636 46.5668L58.3614 46.5455C58.2531 46.6421 58.1781 46.7362 58.1338 46.6977C58.1142 46.8705 58.3887 46.755 58.3051 47.063C58.1304 47.1682 58.0025 47.5695 57.8167 47.5019C58.2386 47.0716 57.63 47.4351 57.9207 47.0185C57.8772 47.1092 57.803 47.2025 57.6947 47.2983C57.6649 47.3017 57.6777 47.2581 57.693 47.2204C57.2097 47.5618 57.693 47.56 57.3069 48.0117C57.2745 47.886 57.0648 47.9861 57.0196 48.0742C57.1756 47.8945 57.2276 48.1016 57.1458 48.3223C56.8363 48.5575 56.9224 48.6773 56.7852 48.8236L56.9625 48.6756C56.9906 48.8048 56.8585 48.9425 56.6991 49.1589C56.6223 49.1196 56.8218 48.9425 56.7297 48.9878C56.665 49.3309 56.1347 49.348 55.9472 49.7347C55.7656 49.8245 55.7912 49.6106 55.6437 49.6987C55.4169 50.1188 55.1902 49.9442 54.9302 50.3626C55.1262 50.3677 55.1211 50.3241 54.9753 50.6637L55.4689 50.0341L55.2515 50.5397C55.4246 50.372 55.5491 50.1196 55.6684 50.0358C55.578 50.2881 55.5695 50.2462 55.7358 50.2479C55.3513 50.3284 55.3564 50.798 54.9847 50.9648L54.752 50.6996C54.2218 50.9554 54.1399 51.5277 53.5057 51.9212L53.7282 51.8186C53.741 51.9888 53.3872 52.1223 53.238 52.3182C53.1826 52.2121 53.0402 52.2728 52.9175 52.2788C52.9831 52.3447 52.4835 52.5894 52.5679 52.8195L52.2133 52.8888C51.7001 53.1788 51.8391 53.5415 51.337 53.8289C51.4145 53.6262 51.1545 53.6963 51.4239 53.4106C51.2645 53.5133 51.1128 53.5894 51.1511 53.6579C51.019 53.6484 50.7743 54.0556 50.5672 54.0454C50.5229 54.1292 50.5604 54.2541 50.366 54.3474C50.3344 54.3362 50.3404 54.296 50.3404 54.296C50.3668 54.3474 50.0753 54.5142 50.3029 54.5475C49.6209 54.4868 48.8102 55.279 48.2109 55.1164C47.8384 55.2961 47.3627 55.4389 47.0013 55.533C47.0175 55.4945 46.9902 55.4757 47.0618 55.4757C46.5392 55.4501 46.8112 55.8735 46.2025 55.8333C45.8811 55.6725 46.5009 55.7016 46.3048 55.6477C46.1726 55.2704 45.6347 55.7666 45.1804 55.5792L45.2801 55.5467C44.9502 55.4449 44.5163 55.7632 43.9997 55.7828C43.9997 55.7828 44.021 55.7469 43.9954 55.7247C43.6647 55.9591 43.0193 56.1516 42.5428 56.2833C42.6638 56.1088 42.7491 56.167 42.6263 56.0318C42.4107 56.0934 42.7363 56.2568 42.3126 56.3868C42.1558 56.3423 41.8284 56.3526 41.7449 56.2046L42.1549 56.0882C41.8949 55.9368 41.6213 56.2354 41.3962 56.2559L41.3996 56.1592C40.7679 56.3466 40.8404 56.605 40.178 56.8214L40.2709 56.8624C40.005 57.2158 39.9146 56.8334 39.6418 57.1644L39.4406 57.001C39.2318 57.1679 38.7339 57.5836 38.3938 57.8839C38.5072 57.5853 38.9308 57.2406 39.1943 57.0156C38.9581 57.114 38.4253 57.4271 38.3827 57.6136C38.4569 57.5391 38.5379 57.4194 38.6419 57.3963C38.4748 57.735 38.1679 57.9942 37.7783 58.3005C37.676 58.0901 37.3998 58.2765 37.0852 58.5127C36.786 58.7684 36.4791 59.0969 36.2114 59.1158C35.752 59.931 35.058 60.5752 34.6795 61.6086C35.145 61.3845 34.5755 61.9063 34.9412 61.9688C34.8748 62.1903 34.856 62.2767 34.8253 62.2956C34.8236 62.2981 34.8219 62.3007 34.8193 62.3041L34.8211 62.305C34.6838 62.5163 34.5338 62.731 34.4136 62.956C34.2703 63.1031 34.3897 62.7087 34.3053 62.7096C34.1536 63.2331 34.1041 62.8944 33.9259 63.2306C34.0666 63.1861 34.07 63.4547 33.9677 63.749L34.2098 63.3546C34.2669 64.1228 33.7896 63.944 33.8825 64.714L33.7972 64.465C33.8117 64.8637 33.6421 65.8526 33.8987 66.2393C33.8501 66.2992 33.7418 66.3744 33.7324 66.211C33.6046 67.0785 33.8296 68.1821 33.5398 68.8202L33.4622 68.7415C33.4613 68.9041 33.585 69.0469 33.4613 69.23C33.4272 69.2129 33.3855 69.1504 33.3676 69.2223C33.3821 69.3104 33.4409 69.6697 33.3505 69.869L33.2866 69.6714C33.0121 70.4627 33.2516 70.9743 33.1093 71.6724C32.8518 71.5928 32.5935 72.1917 32.4264 72.4654L32.3949 72.4414C32.0343 73.3063 31.9652 73.9958 31.5663 74.7914C31.3088 74.9488 31.0062 75.2799 30.6848 75.6469C30.337 76.0079 29.9551 76.3843 29.5843 76.5828C29.7139 76.5434 29.6977 76.7539 29.5911 76.8642C29.407 76.9421 29.2458 77.3382 29.1393 77.1106L29.2007 77.079C28.9475 76.9532 28.6619 77.2099 28.3746 77.3185L28.4539 77.629C27.575 77.5486 26.3167 78.3955 25.7362 78.0944C25.535 78.2125 25.2682 78.2604 25.0687 78.3776L25.0491 78.2099C24.4379 78.2818 24.1327 78.3177 23.3919 78.5144L23.5197 78.3647C23.0935 78.44 23.0901 78.9559 22.709 79.0534L22.536 78.8344C21.808 79.0106 21.0083 78.9824 20.3588 79.4144C20.3605 79.3759 20.3622 79.2998 20.4764 79.2561C20.1346 79.3451 19.1107 79.4777 19.3383 79.7763C19.2633 79.5633 18.5941 79.9927 18.2429 80.21L18.2506 80.0329C17.9914 80.3349 18.0008 80.4127 17.5729 80.6377C17.4893 80.654 17.4535 80.5984 17.5038 80.5616C17.2489 80.6377 17.3222 80.7986 16.9079 80.8755L17.0281 80.7147C16.6573 80.8499 16.705 80.8824 16.561 81.086C16.3709 81.2579 15.8841 81.3828 15.763 81.2768C15.7562 81.382 15.6224 81.5873 15.3973 81.654C15.3419 81.6181 15.4007 81.5488 15.4297 81.5146C14.7818 81.7088 14.6949 82.1853 14.2218 82.2734C14.1834 82.2323 14.1442 82.2255 14.1024 82.2315C14.5474 81.9543 14.9089 81.737 14.8816 81.7687C14.8066 81.6352 14.4289 81.8422 14.6105 81.4778C14.3727 81.7635 14.0163 82.2862 13.6284 82.4479C13.6037 82.4479 13.5798 82.4479 13.5543 82.4385L13.579 82.3983C13.4937 82.4436 13.4341 82.5086 13.3846 82.5788C13.2653 82.6387 13.1869 82.6755 13.0846 82.7524C12.9695 82.6806 12.6541 82.9988 12.481 83.1246C12.6003 83.2443 12.3642 83.3923 12.6575 83.341C12.6234 83.3521 12.6762 83.3008 12.7828 83.2093C12.8049 83.187 12.8331 83.1614 12.8433 83.1408L12.8407 83.1614C12.949 83.0741 13.0897 82.9603 13.2491 82.832C13.1681 83.0023 13.076 83.1639 12.8339 83.2332C12.816 83.3838 12.7922 83.5412 12.7734 83.6216C12.3923 83.6028 11.9184 83.9125 11.7572 83.8534C11.3267 84.3462 10.7096 84.9818 10.6882 85.4977C10.5987 85.6593 10.4811 85.5952 10.3984 85.6149C10.4436 85.5156 10.5314 85.4241 10.5348 85.3514C10.3362 85.6653 9.86816 86.2128 9.99944 86.4199C9.65077 86.7321 9.98921 86.0896 9.64651 86.6235L9.64225 86.5148C9.11286 86.91 8.97561 87.4447 8.82558 87.9597C8.65167 88.4679 8.55534 89.0025 8.06516 89.5423C8.12995 89.4662 8.16149 89.4268 8.20327 89.4243C7.40535 90.8195 7.33374 92.5305 7.00383 94.0644C6.89897 94.5092 7.08737 94.5614 7.19393 94.8266L7.01917 94.9292L7.2502 95.3792C7.40194 96.0011 6.98934 96.5675 7.40108 97.3408L7.49827 97.2065C7.53492 97.5042 7.84949 98.0791 7.69434 98.0765C7.72503 98.0996 7.84437 98.1296 7.8205 98.2596L7.73526 98.2998C7.86909 98.5111 7.97224 98.7318 8.13081 98.9269C8.31409 99.4624 7.74719 98.9919 8.09841 99.7575C8.26976 100.028 8.72754 100.426 8.73095 100.288C8.68065 100.175 8.644 99.9774 8.72328 99.9243L8.8861 100.148C9.15122 100.06 9.47943 100.089 9.37372 99.4265L9.02847 99.1031L9.08729 98.9174L9.25778 99.2477C9.27909 99.003 9.12139 98.9337 8.98414 98.8293C9.03443 98.7677 9.05319 98.6925 9.0387 98.6035C8.88695 98.512 8.76164 98.4076 8.63547 98.2981C8.72072 98.2108 8.89633 98.405 8.86223 98.1099C8.68406 97.9585 8.69685 98.3811 8.51442 98.0851C8.56557 97.8387 8.68321 97.8686 8.50334 97.6642C8.5596 97.6094 8.62013 97.6462 8.68065 97.7292C8.53147 97.5461 8.45986 97.1894 8.28681 97.1158C8.39848 96.8617 8.1112 96.3835 8.37206 96.357C8.29789 96.3023 8.09756 96.0106 8.04897 95.8087C8.39252 96.1389 8.00293 95.0482 8.35927 95.1209C8.05494 94.8668 8.17258 94.1508 8.08648 93.6597C8.10694 93.6888 8.14786 93.7453 8.12995 93.7863C8.17428 93.5151 8.26464 93.4441 8.33029 93.2773C8.09159 93.2174 8.08307 92.7846 8.00379 92.5305C8.29192 92.2371 8.2331 92.7794 8.46753 92.7084C8.27743 92.6965 8.39593 92.1079 8.21946 92.1874C8.4053 91.9625 8.32858 91.9821 8.54255 91.8974C8.27402 91.7854 8.52465 91.6494 8.43003 91.4021C8.68321 91.0839 8.72072 91.3867 8.76249 90.9735C8.90656 90.8187 8.89463 91.1908 8.89463 91.1908C9.0242 90.8042 8.74885 90.941 8.65593 90.8178C8.75141 90.3208 8.88013 90.6519 9.03614 90.5304C9.06427 90.2164 9.00886 89.9333 9.10263 89.7194C9.1427 89.7177 9.17339 89.6818 9.19385 89.7485C9.16742 89.373 9.57576 88.8528 9.60218 88.4225C9.63372 88.4071 9.65674 88.4037 9.6755 88.4054C9.54762 88.4054 9.44533 88.3592 9.38224 88.3079C9.47687 88.1402 9.44447 87.9263 9.60474 87.9375C9.5408 88.0376 9.58599 88.0761 9.59622 88.1462L9.64481 87.94C9.91163 87.8913 9.56723 88.2146 9.69937 88.2916C9.83491 87.9238 9.9159 87.4285 10.1571 87.2257C10.3566 87.2882 9.80678 87.8331 10.1853 87.6081C10.0728 87.7159 9.98495 87.8417 9.88265 87.9589C10.3285 87.8254 9.72494 88.1864 10.1742 88.0897C10.5152 87.6073 10.4657 87.4841 10.8502 87.0281C10.84 86.8519 10.6917 86.9648 10.6814 86.7869C11.0326 85.957 11.5032 86.5918 11.6959 85.9382C11.7044 85.7295 11.5561 85.4994 11.961 85.2616L12.0198 85.5319C12.4461 85.1401 12.0292 85.0665 12.5824 84.7551C12.5637 84.8963 12.2977 85.1247 12.3813 85.0836C12.7939 84.945 12.4972 84.7979 12.7223 84.5874L12.903 84.6961C13.3267 84.2435 13.8058 83.738 14.336 83.2837C14.3368 83.3538 14.2738 83.4685 14.4451 83.4334C14.7835 83.1605 15.1808 82.9167 15.584 82.6994C16.0034 82.5095 16.4416 82.3675 16.8338 82.2306L17.046 81.9295C17.1168 81.9047 17.2063 81.9517 17.1449 82.0125C17.4731 81.9552 17.1168 81.9047 17.2353 81.7841C17.4041 81.7045 17.5021 81.7875 17.4134 81.8782C17.6504 81.7062 18.0051 81.4812 18.3802 81.2922C18.7672 81.1185 19.1832 80.9953 19.5063 80.9876L19.4065 81.074C19.8873 80.9936 19.8225 80.5607 20.3033 80.5932L20.2292 80.6471C21.2581 80.4179 22.3501 79.9722 23.1924 80.0569C23.2862 79.7703 24.2333 79.9499 24.2299 79.5906C24.8564 79.6428 24.6962 79.7403 25.5563 79.6959C25.7848 79.6702 25.8513 79.4178 26.1241 79.3297L26.165 79.5085L26.5119 79.2442L26.7583 79.4204L27.0166 79.3169C26.9066 79.3306 26.7728 79.2861 26.7788 79.2305C27.1743 79.0654 27.8273 79.1184 27.8691 79.1963C28.193 79.0619 28.5178 78.8849 28.829 78.7086C28.8367 78.7916 28.6772 78.8746 28.557 78.967C29.031 78.5931 28.7318 79.1176 29.1597 78.7411C29.0762 78.7334 29.1495 78.6257 29.1435 78.5872C29.4325 78.5872 29.9841 78.2741 30.3029 77.961L30.308 78.1141C31.0045 77.6496 31.5526 76.9797 32.1068 76.2894C31.8595 76.4998 31.7419 76.2971 31.8843 76.0892L32.0999 76.1311C32.1093 75.9284 31.8749 76.2919 31.9721 75.9386C32.192 75.7034 32.2858 75.9001 32.2159 76.0883C32.2841 75.9711 32.3489 75.8531 32.4009 75.7273C32.4614 75.7419 32.4333 75.8368 32.4793 75.901C32.4682 75.6965 33.0385 75.4305 32.9805 75.1122L33.0411 75.1225C33.4818 74.3526 33.5875 73.9599 33.8458 73.3038C33.6958 73.2285 33.8288 72.9855 33.7768 72.746C33.995 72.2875 34.2925 71.7836 34.4306 71.1848C34.457 70.7485 34.3249 71.0291 34.2729 70.8186C34.4281 70.8246 34.5474 70.2275 34.5849 70.5594C34.7162 69.84 34.7494 69.6364 34.7699 68.7142C34.6923 68.8031 34.648 68.9083 34.6054 68.8433C34.6071 68.6765 34.7273 68.4815 34.7946 68.5157L34.8049 68.561C34.7281 67.5233 35.5175 66.2675 35.2839 65.4471L35.295 65.4924L35.2226 64.6652C35.3001 64.3008 35.3053 64.9005 35.4365 64.6413C35.3095 63.743 35.6863 63.3204 35.7298 62.6249C36.2796 62.2673 36.4041 60.8755 37.0963 60.4905L36.9872 60.458C37.0145 60.2527 37.1679 60.3237 37.2651 60.2373C37.1909 60.1988 37.0733 60.3297 37.0963 60.2056C37.965 58.8951 39.6205 58.2526 41.1362 57.848C41.6903 57.6786 41.2999 57.2243 42.0987 57.2645L41.9401 57.51C43.0483 56.9471 44.3765 57.0592 45.558 56.7615C45.489 56.8128 45.4907 56.8727 45.373 56.883C45.6049 57.0062 46.4054 56.7932 46.379 56.6777C46.587 56.6674 46.4403 56.7769 46.5759 56.8171C46.8725 56.8488 47.2468 56.5211 47.419 56.6212C47.4488 56.6366 47.3525 56.6888 47.303 56.7068C47.4693 56.5998 48.1427 56.5143 47.9296 56.3996C48.4334 56.3483 48.8111 56.0506 49.2117 56.007C49.378 55.7358 50.0301 55.7726 49.9926 55.4911C50.0676 55.7478 50.869 55.32 51.0676 55.0471C51.0164 55.1695 51.3404 54.9873 51.2909 55.1464C51.597 54.9667 51.8527 54.7623 51.7274 54.6742C52.4477 54.5972 52.6711 53.7597 53.1903 53.8751C53.9549 53.1523 54.6071 52.4525 55.2439 51.7861C55.3999 52.0068 54.5073 52.4901 54.7179 52.6758C55.3052 52.0008 55.5243 51.5012 56.1756 50.9323C56.3606 50.8006 56.1671 51.1043 56.1449 51.1907C56.6965 50.5054 57.3359 49.9879 57.7433 49.3121C57.7612 49.3309 57.7271 49.4121 57.6913 49.4866C57.7834 49.3642 57.9513 49.2419 57.8482 49.1752L57.7766 49.3095C57.4867 49.3762 57.8908 48.6071 57.8354 48.5276C57.9343 48.9502 58.3955 48.0075 58.4688 48.6029C58.5157 48.5113 58.5532 48.3787 58.4756 48.3437C58.5881 48.2444 58.6529 48.2367 58.6316 48.4147C58.9198 47.9442 58.6981 48.0143 59.0059 47.6302C59.051 47.6678 59.0076 47.7602 59.0297 47.8441C59.0954 47.5754 59.1602 47.3085 59.4577 47.0125C59.4705 47.0545 59.537 47.0451 59.4594 47.1417C59.8762 46.5583 59.9402 45.98 60.4892 45.4171C60.565 45.7524 60.7108 45.2511 60.9146 45.3478L61.1038 44.9714L60.9188 45.0441C61.1345 44.7498 61.1933 44.3931 61.4363 44.1826L61.351 44.4555L61.7193 43.879L61.4235 44.1407C61.5497 43.7754 61.1729 44.0064 61.5104 43.6514C61.4704 43.7446 61.7295 43.3571 61.9478 43.2835V43.2853C61.9989 43.0979 62.0501 42.9037 62.2564 42.7206C62.3552 42.7078 62.4192 42.914 62.484 42.9063C62.4422 42.6513 62.9571 42.1945 62.9383 41.8951C62.9298 41.9832 63.0193 42.0577 63.0534 42.0534L63.0253 41.8421C63.1668 41.7386 63.2001 41.7334 63.2572 41.8121C63.5896 41.428 62.9349 41.7651 63.4012 41.3647C63.3816 41.4101 63.4132 41.4058 63.3705 41.4973C63.7917 41.0593 64.021 40.5204 64.4302 40.1354C64.7055 40.1499 64.1659 40.546 64.4302 40.5204C64.9007 39.8753 65.2792 39.0712 65.8316 38.5254L65.7183 38.6169C65.5478 38.3192 66.2195 38.2936 66.3866 37.9283C66.3372 38.0113 66.4258 38.1362 66.419 38.0942C66.8367 37.7794 67.0831 37.2559 67.644 36.6879L67.6184 36.8102C67.9074 36.6776 68.2834 36.3474 68.5664 36.1737C68.5962 36.048 68.7539 35.9419 68.5945 35.9162C69.1299 35.7853 69.5323 35.5321 69.8963 35.213C70.2552 34.8888 70.6533 34.6322 71.1477 34.6253C71.0488 34.6707 70.9423 34.7955 71.0207 34.7613L71.6933 34.3781C71.5867 34.2754 71.5697 34.3421 71.3796 34.3096C71.4384 34.195 71.6174 34.0436 71.7973 33.9657C71.5075 34.1967 71.8757 34.1591 72.0479 34.1976C72.0096 34.1659 72.0428 34.106 72.0155 34.0701C72.4844 34.1779 71.9891 33.7878 72.5765 33.7733L72.5705 33.8511C72.758 33.7527 72.9149 33.6022 73.1374 33.5525C73.2687 33.6783 72.9447 33.692 72.9678 33.822C73.2584 33.7074 73.4878 33.3498 73.8091 33.4533C73.6872 33.5243 73.4988 33.5645 73.3786 33.6347C73.7282 33.7519 73.7503 33.6988 73.9813 33.6809L73.9583 33.6817L74.4911 33.6561L74.3505 33.6338C74.6565 33.1308 75.1177 33.4046 75.613 33.0837C75.1279 33.3994 75.5465 33.2412 75.5277 33.4259C75.6675 33.4602 75.8747 33.4918 75.8227 33.5491C76.0563 33.384 76.2379 33.5979 76.5729 33.3815C76.5916 33.4388 76.8389 33.378 76.7894 33.526C77.1082 33.4696 76.7093 33.4276 76.7323 33.3541C77.2293 33.1317 77.8993 33.5491 78.6214 33.3241C79.248 33.2266 79.3792 33.0778 79.9751 33.0316C80.1601 33.1445 79.7901 33.2249 79.7901 33.2249C80.0953 33.3387 80.3306 33.3532 80.6349 33.3395C80.5676 33.3806 80.623 33.4328 80.7014 33.5123C80.9376 33.5354 80.8932 33.3284 81.1899 33.4636C81.1243 33.5183 81.0382 33.6099 80.9146 33.6561C81.1993 33.6424 81.49 33.5945 81.7858 33.6056C81.8395 33.7211 81.582 33.7194 81.4704 33.763C81.796 33.7852 82.3118 33.8477 82.4465 33.7254L82.2572 33.6167Z" fill="white"/>
</svg>
